<svg width="400" height="269" fill="none" xmlns="http://www.w3.org/2000/svg"><rect x=".5" y=".5" width="399" height="268" rx="7.5" fill="#002429"/><rect x=".5" y=".5" width="399" height="268" rx="7.5" stroke="#05343B"/><g filter="url(#a)"><rect x="30" y="49" width="340" height="40" rx="4" fill="#05343B" fill-opacity=".5"/><path opacity=".5" d="M52.248 75.16c-1.408 0-2.688-.576-3.456-1.616l1.184-1.424c.608.832 1.344 1.28 2.224 1.28 1.152 0 1.744-.688 1.744-2.064v-5.792H49.96V63.8h6.064v7.424c0 2.64-1.312 3.936-3.776 3.936zm10.582-.048c-2.624 0-4.544-1.824-4.544-4.384 0-2.56 1.92-4.368 4.544-4.368 2.656 0 4.56 1.808 4.56 4.368 0 2.56-1.904 4.384-4.56 4.384zm0-1.712c1.456 0 2.544-1.04 2.544-2.672 0-1.632-1.088-2.672-2.544-2.672-1.44 0-2.529 1.04-2.529 2.672 0 1.632 1.088 2.672 2.529 2.672zm11.56-7.04c2.048 0 3.568 1.168 3.568 3.744V75h-2v-4.64c0-1.52-.752-2.256-2.032-2.256-1.424 0-2.384.864-2.384 2.576V75h-2V63.128h2v4.32c.656-.704 1.664-1.088 2.848-1.088zm11.193 0c2.048 0 3.568 1.168 3.568 3.744V75h-2v-4.64c0-1.52-.752-2.256-2.032-2.256-1.424 0-2.384.864-2.384 2.576V75h-2v-8.544h1.904v1.104c.656-.784 1.696-1.2 2.944-1.2zm11.2 8.64V63.8h4.895c3.632 0 6.112 2.24 6.112 5.6 0 3.36-2.48 5.6-6.112 5.6h-4.896zm2.08-1.76h2.719c2.496 0 4.112-1.52 4.112-3.84s-1.616-3.84-4.112-3.84h-2.72v7.68zm15.026 1.872c-2.624 0-4.544-1.824-4.544-4.384 0-2.56 1.92-4.368 4.544-4.368 2.656 0 4.56 1.808 4.56 4.368 0 2.56-1.904 4.384-4.56 4.384zm0-1.712c1.456 0 2.544-1.04 2.544-2.672 0-1.632-1.088-2.672-2.544-2.672-1.44 0-2.528 1.04-2.528 2.672 0 1.632 1.088 2.672 2.528 2.672zm14.744-2.624c0 .16-.016.4-.032.592h-6.704c.24 1.248 1.28 2.048 2.768 2.048.96 0 1.712-.304 2.32-.928l1.072 1.232c-.768.912-1.968 1.392-3.44 1.392-2.864 0-4.72-1.84-4.72-4.384 0-2.544 1.872-4.368 4.416-4.368 2.496 0 4.32 1.744 4.32 4.416zm-4.32-2.816c-1.296 0-2.24.832-2.432 2.08h4.848c-.16-1.232-1.104-2.08-2.416-2.08z" fill="#E3E3E3"/></g><path opacity=".25" d="M47.284 33.6h1.2V42H47.5l-5.04-6.264V42h-1.2v-8.4h.984l5.04 6.264V33.6zm10.17 8.4-.924-2.1h-4.464l-.924 2.1h-1.236l3.804-8.4h1.188l3.816 8.4h-1.26zm-4.968-3.06h3.624l-1.812-4.116-1.812 4.116zM69.087 42h-1.152l-.012-6.12-3.036 5.1h-.552L61.3 35.916V42h-1.152v-8.4h.984l3.504 5.904 3.456-5.904h.984l.012 8.4zm3.901-1.044h4.896V42h-6.096v-8.4h5.928v1.044h-4.728v2.58H77.2v1.02h-4.212v2.712z" fill="#E3E3E3"/><g filter="url(#b)"><rect x="30" y="124" width="340" height="40" rx="4" fill="#05343B" fill-opacity=".5"/><path opacity=".5" d="M58.376 138.8h2.08V150h-2.08v-4.8h-5.792v4.8h-2.08v-11.2h2.08v4.624h5.792V138.8zm8.97 11.312c-2.625 0-4.545-1.824-4.545-4.384 0-2.56 1.92-4.368 4.544-4.368 2.656 0 4.56 1.808 4.56 4.368 0 2.56-1.904 4.384-4.56 4.384zm0-1.712c1.455 0 2.543-1.04 2.543-2.672 0-1.632-1.088-2.672-2.544-2.672-1.44 0-2.528 1.04-2.528 2.672 0 1.632 1.088 2.672 2.528 2.672zm12.984-6.944h2V150h-1.904v-1.088c-.64.784-1.648 1.2-2.752 1.2-2.192 0-3.68-1.2-3.68-3.776v-4.88h2v4.608c0 1.552.736 2.288 2 2.288 1.392 0 2.336-.864 2.336-2.576v-4.32zm7.498 8.656c-1.424 0-2.848-.416-3.616-.96l.768-1.52c.752.496 1.904.848 2.976.848 1.264 0 1.792-.352 1.792-.944 0-1.632-5.28-.096-5.28-3.504 0-1.616 1.456-2.672 3.76-2.672 1.136 0 2.432.272 3.2.736l-.768 1.52c-.816-.48-1.632-.64-2.448-.64-1.216 0-1.792.4-1.792.96 0 1.728 5.28.192 5.28 3.536 0 1.6-1.472 2.64-3.872 2.64zm13.867-4.336c0 .16-.016.4-.032.592h-6.704c.24 1.248 1.28 2.048 2.768 2.048.96 0 1.712-.304 2.32-.928l1.072 1.232c-.768.912-1.968 1.392-3.44 1.392-2.864 0-4.72-1.84-4.72-4.384 0-2.544 1.872-4.368 4.416-4.368 2.496 0 4.32 1.744 4.32 4.416zm-4.32-2.816c-1.296 0-2.24.832-2.432 2.08h4.848c-.16-1.232-1.104-2.08-2.416-2.08zm22.695-1.504h1.776L118.694 150h-1.92l-2.208-5.888-2.24 5.888h-1.92l-3.136-8.544h1.888l2.256 6.304 2.352-6.304h1.68l2.304 6.336 2.32-6.336zm4.399-1.408c-.736 0-1.28-.528-1.28-1.2 0-.672.544-1.2 1.28-1.2s1.28.496 1.28 1.152c0 .704-.528 1.248-1.28 1.248zM123.461 150v-8.544h2V150h-2zm9.441-1.888.56 1.424c-.48.384-1.2.576-1.92.576-1.872 0-2.944-.992-2.944-2.88v-4.112h-1.408v-1.6h1.408v-1.952h2v1.952h2.288v1.6h-2.288v4.064c0 .832.416 1.28 1.184 1.28.416 0 .816-.112 1.12-.352zm7.293-6.752c2.048 0 3.568 1.168 3.568 3.744V150h-2v-4.64c0-1.52-.752-2.256-2.032-2.256-1.424 0-2.384.864-2.384 2.576V150h-2v-11.872h2v4.32c.656-.704 1.664-1.088 2.848-1.088zm14.271 0c2.464 0 3.888 1.168 3.888 3.632V150h-1.888v-1.04c-.48.736-1.408 1.152-2.688 1.152-1.952 0-3.184-1.072-3.184-2.56 0-1.424.96-2.544 3.552-2.544h2.208v-.128c0-1.168-.704-1.856-2.128-1.856-.96 0-1.952.32-2.592.848l-.784-1.456c.912-.704 2.24-1.056 3.616-1.056zm-.272 7.296c.976 0 1.824-.448 2.16-1.328v-.992h-2.064c-1.36 0-1.728.512-1.728 1.136 0 .72.608 1.184 1.632 1.184zm17.709-7.2h1.92L170.159 150h-2.064l-3.664-8.544h2.08l2.656 6.336 2.736-6.336zm4.418-1.408c-.736 0-1.28-.528-1.28-1.2 0-.672.544-1.2 1.28-1.2s1.28.496 1.28 1.152c0 .704-.528 1.248-1.28 1.248zM175.313 150v-8.544h2V150h-2zm12.897-4.224c0 .16-.016.4-.032.592h-6.704c.24 1.248 1.28 2.048 2.768 2.048.96 0 1.712-.304 2.32-.928l1.072 1.232c-.768.912-1.968 1.392-3.44 1.392-2.864 0-4.72-1.84-4.72-4.384 0-2.544 1.872-4.368 4.416-4.368 2.496 0 4.32 1.744 4.32 4.416zm-4.32-2.816c-1.296 0-2.24.832-2.432 2.08h4.848c-.16-1.232-1.104-2.08-2.416-2.08zm17.876-1.504h1.776L200.39 150h-1.92l-2.208-5.888-2.24 5.888h-1.92l-3.136-8.544h1.888l2.256 6.304 2.352-6.304h1.68l2.304 6.336 2.32-6.336z" fill="#E3E3E3"/></g><path opacity=".25" d="M41.26 117v-8.4h3.54c2.7 0 4.536 1.704 4.536 4.2 0 2.496-1.836 4.2-4.536 4.2h-3.54zm1.2-1.044h2.268c2.076 0 3.408-1.272 3.408-3.156 0-1.884-1.332-3.156-3.408-3.156H42.46v6.312zm10.094 0h4.896V117h-6.096v-8.4h5.928v1.044h-4.728v2.58h4.212v1.02h-4.212v2.712zm9.467 1.14c-1.284 0-2.544-.432-3.216-1.056l.444-.936c.624.564 1.692.972 2.772.972 1.452 0 2.076-.564 2.076-1.296 0-2.052-5.088-.756-5.088-3.876 0-1.296 1.008-2.4 3.216-2.4.984 0 2.004.264 2.7.744l-.396.96a4.338 4.338 0 0 0-2.304-.684c-1.428 0-2.04.6-2.04 1.332 0 2.052 5.088.768 5.088 3.852 0 1.284-1.032 2.388-3.252 2.388zm8.941 0c-2.544 0-4.44-1.812-4.44-4.296s1.896-4.296 4.452-4.296c1.296 0 2.424.444 3.192 1.308l-.78.756c-.648-.684-1.44-.996-2.364-.996-1.896 0-3.3 1.368-3.3 3.228s1.404 3.228 3.3 3.228c.924 0 1.716-.324 2.364-1.008l.78.756c-.768.864-1.896 1.32-3.204 1.32zm12.02-.096h-1.308l-1.812-2.58a7.43 7.43 0 0 1-.528.024h-2.076V117h-1.2v-8.4h3.276c2.184 0 3.504 1.104 3.504 2.928 0 1.296-.672 2.232-1.848 2.652l1.992 2.82zm-3.684-3.576c1.536 0 2.34-.696 2.34-1.896s-.804-1.884-2.34-1.884h-2.04v3.78h2.04zM84.957 117v-8.4h1.2v8.4h-1.2zm7.17-8.4c2.185 0 3.505 1.104 3.505 2.928 0 1.824-1.32 2.928-3.504 2.928h-2.076V117h-1.2v-8.4h3.276zm-.035 4.812c1.536 0 2.34-.684 2.34-1.884 0-1.2-.804-1.884-2.34-1.884h-2.04v3.768h2.04zM98.973 117v-7.356h-2.88V108.6h6.948v1.044h-2.88V117h-1.188zm5.555 0v-8.4h1.2v8.4h-1.2zm7.687.096c-2.58 0-4.476-1.836-4.476-4.296s1.896-4.296 4.476-4.296c2.556 0 4.452 1.824 4.452 4.296 0 2.472-1.896 4.296-4.452 4.296zm0-1.068c1.86 0 3.252-1.368 3.252-3.228s-1.392-3.228-3.252-3.228c-1.884 0-3.276 1.368-3.276 3.228s1.392 3.228 3.276 3.228zm12.49-7.428h1.2v8.4h-.984l-5.04-6.264V117h-1.2v-8.4h.984l5.04 6.264V108.6z" fill="#E3E3E3"/><g filter="url(#c)"><rect x="30" y="199" width="340" height="40" rx="4" fill="#05343B" fill-opacity=".5"/><path opacity=".5" d="M58.504 221.832c0 1.632-1.2 3.04-3.712 3.296v1.792H53.48v-1.776c-1.568-.096-3.088-.608-3.92-1.328l.72-1.616c.784.64 1.984 1.104 3.2 1.216v-3.2c-1.776-.432-3.68-1.008-3.68-3.232 0-1.632 1.184-3.056 3.68-3.296v-1.808h1.312v1.776c1.184.064 2.384.416 3.248.976l-.656 1.616a6.62 6.62 0 0 0-2.592-.864v3.232c1.776.432 3.712.992 3.712 3.216zm-6.64-4.944c0 .768.688 1.12 1.616 1.392v-2.848c-1.136.176-1.616.752-1.616 1.456zm2.928 6.496c1.168-.176 1.664-.72 1.664-1.408 0-.784-.704-1.152-1.664-1.424v2.832zm8.047-.144h5.28V225h-8.257v-1.392l4.449-4.224c1.087-1.04 1.28-1.696 1.28-2.32 0-1.024-.704-1.616-2.08-1.616-1.089 0-2 .368-2.625 1.168l-1.456-1.12c.864-1.168 2.416-1.856 4.257-1.856 2.431 0 4 1.232 4 3.216 0 1.088-.305 2.08-1.856 3.536l-2.992 2.848zm8.124 1.872c-.72 0-1.312-.56-1.312-1.328 0-.8.592-1.328 1.312-1.328.72 0 1.312.528 1.312 1.328 0 .768-.592 1.328-1.312 1.328zm7.383.048c-2.656 0-4.672-2.08-4.672-5.76 0-3.68 2.016-5.76 4.672-5.76 2.672 0 4.688 2.08 4.688 5.76 0 3.68-2.016 5.76-4.688 5.76zm0-1.808c1.536 0 2.592-1.248 2.592-3.952 0-2.704-1.056-3.952-2.592-3.952-1.52 0-2.576 1.248-2.576 3.952 0 2.704 1.056 3.952 2.576 3.952zm11.006 1.808c-2.656 0-4.672-2.08-4.672-5.76 0-3.68 2.016-5.76 4.672-5.76 2.672 0 4.688 2.08 4.688 5.76 0 3.68-2.016 5.76-4.688 5.76zm0-1.808c1.536 0 2.592-1.248 2.592-3.952 0-2.704-1.056-3.952-2.592-3.952-1.52 0-2.576 1.248-2.576 3.952 0 2.704 1.056 3.952 2.576 3.952zm11.005 1.808c-2.656 0-4.672-2.08-4.672-5.76 0-3.68 2.016-5.76 4.672-5.76 2.672 0 4.688 2.08 4.688 5.76 0 3.68-2.016 5.76-4.688 5.76zm0-1.808c1.536 0 2.592-1.248 2.592-3.952 0-2.704-1.056-3.952-2.592-3.952-1.52 0-2.576 1.248-2.576 3.952 0 2.704 1.056 3.952 2.576 3.952zm7.394 1.76c-.72 0-1.312-.56-1.312-1.328 0-.8.592-1.328 1.312-1.328.72 0 1.312.528 1.312 1.328 0 .768-.592 1.328-1.312 1.328zm7.383.048c-2.656 0-4.672-2.08-4.672-5.76 0-3.68 2.016-5.76 4.672-5.76 2.672 0 4.688 2.08 4.688 5.76 0 3.68-2.016 5.76-4.688 5.76zm0-1.808c1.536 0 2.592-1.248 2.592-3.952 0-2.704-1.056-3.952-2.592-3.952-1.52 0-2.576 1.248-2.576 3.952 0 2.704 1.056 3.952 2.576 3.952zm11.006 1.808c-2.656 0-4.672-2.08-4.672-5.76 0-3.68 2.016-5.76 4.672-5.76 2.672 0 4.688 2.08 4.688 5.76 0 3.68-2.016 5.76-4.688 5.76zm0-1.808c1.536 0 2.592-1.248 2.592-3.952 0-2.704-1.056-3.952-2.592-3.952-1.52 0-2.576 1.248-2.576 3.952 0 2.704 1.056 3.952 2.576 3.952zm11.005 1.808c-2.656 0-4.672-2.08-4.672-5.76 0-3.68 2.016-5.76 4.672-5.76 2.672 0 4.688 2.08 4.688 5.76 0 3.68-2.016 5.76-4.688 5.76zm0-1.808c1.536 0 2.592-1.248 2.592-3.952 0-2.704-1.056-3.952-2.592-3.952-1.52 0-2.576 1.248-2.576 3.952 0 2.704 1.056 3.952 2.576 3.952z" fill="#E3E3E3"/></g><path opacity=".25" d="m47.536 192-.924-2.1h-4.464l-.924 2.1h-1.236l3.804-8.4h1.188l3.816 8.4h-1.26zm-4.968-3.06h3.624l-1.812-4.116-1.812 4.116zm10.11 3.156c-1.285 0-2.545-.432-3.217-1.056l.444-.936c.624.564 1.692.972 2.772.972 1.452 0 2.076-.564 2.076-1.296 0-2.052-5.088-.756-5.088-3.876 0-1.296 1.008-2.4 3.216-2.4.984 0 2.004.264 2.7.744l-.396.96a4.338 4.338 0 0 0-2.304-.684c-1.428 0-2.04.6-2.04 1.332 0 2.052 5.088.768 5.088 3.852 0 1.284-1.032 2.388-3.252 2.388zM63.813 192l-3.216-3.732-1.536 1.56V192h-1.2v-8.4h1.2v4.692l4.56-4.692h1.368l-3.588 3.78 3.816 4.62h-1.404zm2.853 0v-8.4h1.2v8.4h-1.2zm9.919-8.4h1.2v8.4h-.984l-5.04-6.264V192h-1.2v-8.4h.984l5.04 6.264V183.6zm9.714 6.888v-2.736h1.152v3.276c-.84.708-2.004 1.068-3.18 1.068-2.58 0-4.476-1.812-4.476-4.296s1.896-4.296 4.5-4.296c1.332 0 2.46.444 3.228 1.296l-.744.744c-.696-.672-1.488-.972-2.436-.972-1.944 0-3.348 1.356-3.348 3.228 0 1.848 1.404 3.228 3.336 3.228.708 0 1.368-.156 1.968-.54zM96.61 183.6c2.184 0 3.503 1.104 3.503 2.928 0 1.824-1.32 2.928-3.503 2.928h-2.076V192h-1.2v-8.4h3.276zm-.036 4.812c1.536 0 2.34-.684 2.34-1.884 0-1.2-.804-1.884-2.34-1.884h-2.04v3.768h2.04zM108.979 192h-1.308l-1.812-2.58a7.43 7.43 0 0 1-.528.024h-2.076V192h-1.2v-8.4h3.276c2.184 0 3.504 1.104 3.504 2.928 0 1.296-.672 2.232-1.848 2.652l1.992 2.82zm-3.684-3.576c1.536 0 2.34-.696 2.34-1.896s-.804-1.884-2.34-1.884h-2.04v3.78h2.04zm5.659 3.576v-8.4h1.2v8.4h-1.2zm7.651.096c-2.544 0-4.44-1.812-4.44-4.296s1.896-4.296 4.452-4.296c1.296 0 2.424.444 3.192 1.308l-.78.756c-.648-.684-1.44-.996-2.364-.996-1.896 0-3.3 1.368-3.3 3.228s1.404 3.228 3.3 3.228c.924 0 1.716-.324 2.364-1.008l.78.756c-.768.864-1.896 1.32-3.204 1.32zm6.296-1.14h4.896V192h-6.096v-8.4h5.928v1.044h-4.728v2.58h4.212v1.02h-4.212v2.712z" fill="#E3E3E3"/><defs><filter id="a" x="-20" y="-1" width="440" height="140" filterUnits="userSpaceOnUse" color-interpolation-filters="sRGB"><feFlood flood-opacity="0" result="BackgroundImageFix"/><feGaussianBlur in="BackgroundImageFix" stdDeviation="25"/><feComposite in2="SourceAlpha" operator="in" result="effect1_backgroundBlur_1_236"/><feBlend in="SourceGraphic" in2="effect1_backgroundBlur_1_236" result="shape"/></filter><filter id="b" x="-20" y="74" width="440" height="140" filterUnits="userSpaceOnUse" color-interpolation-filters="sRGB"><feFlood flood-opacity="0" result="BackgroundImageFix"/><feGaussianBlur in="BackgroundImageFix" stdDeviation="25"/><feComposite in2="SourceAlpha" operator="in" result="effect1_backgroundBlur_1_236"/><feBlend in="SourceGraphic" in2="effect1_backgroundBlur_1_236" result="shape"/></filter><filter id="c" x="-20" y="149" width="440" height="140" filterUnits="userSpaceOnUse" color-interpolation-filters="sRGB"><feFlood flood-opacity="0" result="BackgroundImageFix"/><feGaussianBlur in="BackgroundImageFix" stdDeviation="25"/><feComposite in2="SourceAlpha" operator="in" result="effect1_backgroundBlur_1_236"/><feBlend in="SourceGraphic" in2="effect1_backgroundBlur_1_236" result="shape"/></filter></defs></svg>