<svg width="400" height="269" viewBox="0 0 400 269" fill="none" xmlns="http://www.w3.org/2000/svg">
<rect x="0.5" y="0.5" width="399" height="268" rx="7.5" fill="#002429"/>
<rect x="0.5" y="0.5" width="399" height="268" rx="7.5" stroke="#05343B"/>
<g filter="url(#filter0_b_1_236)">
<rect x="30" y="49" width="340" height="40" rx="4" fill="#05343B" fill-opacity="0.5"/>
<path opacity="0.5" d="M52.248 75.16C50.84 75.16 49.56 74.584 48.792 73.544L49.976 72.12C50.584 72.952 51.32 73.4 52.2 73.4C53.352 73.4 53.944 72.712 53.944 71.336V65.544H49.96V63.8H56.024V71.224C56.024 73.864 54.712 75.16 52.248 75.16ZM62.8295 75.112C60.2055 75.112 58.2855 73.288 58.2855 70.728C58.2855 68.168 60.2055 66.36 62.8295 66.36C65.4855 66.36 67.3895 68.168 67.3895 70.728C67.3895 73.288 65.4855 75.112 62.8295 75.112ZM62.8295 73.4C64.2855 73.4 65.3735 72.36 65.3735 70.728C65.3735 69.096 64.2855 68.056 62.8295 68.056C61.3895 68.056 60.3015 69.096 60.3015 70.728C60.3015 72.36 61.3895 73.4 62.8295 73.4ZM74.39 66.36C76.438 66.36 77.958 67.528 77.958 70.104V75H75.958V70.36C75.958 68.84 75.206 68.104 73.926 68.104C72.502 68.104 71.542 68.968 71.542 70.68V75H69.542V63.128H71.542V67.448C72.198 66.744 73.206 66.36 74.39 66.36ZM85.5831 66.36C87.6311 66.36 89.1511 67.528 89.1511 70.104V75H87.1511V70.36C87.1511 68.84 86.3991 68.104 85.1191 68.104C83.6951 68.104 82.7351 68.968 82.7351 70.68V75H80.7351V66.456H82.6391V67.56C83.2951 66.776 84.3351 66.36 85.5831 66.36ZM96.7821 75V63.8H101.678C105.31 63.8 107.79 66.04 107.79 69.4C107.79 72.76 105.31 75 101.678 75H96.7821ZM98.8621 73.24H101.582C104.078 73.24 105.694 71.72 105.694 69.4C105.694 67.08 104.078 65.56 101.582 65.56H98.8621V73.24ZM113.889 75.112C111.265 75.112 109.345 73.288 109.345 70.728C109.345 68.168 111.265 66.36 113.889 66.36C116.545 66.36 118.449 68.168 118.449 70.728C118.449 73.288 116.545 75.112 113.889 75.112ZM113.889 73.4C115.345 73.4 116.433 72.36 116.433 70.728C116.433 69.096 115.345 68.056 113.889 68.056C112.449 68.056 111.361 69.096 111.361 70.728C111.361 72.36 112.449 73.4 113.889 73.4ZM128.633 70.776C128.633 70.936 128.617 71.176 128.601 71.368H121.897C122.137 72.616 123.177 73.416 124.665 73.416C125.625 73.416 126.377 73.112 126.985 72.488L128.057 73.72C127.289 74.632 126.089 75.112 124.617 75.112C121.753 75.112 119.897 73.272 119.897 70.728C119.897 68.184 121.769 66.36 124.313 66.36C126.809 66.36 128.633 68.104 128.633 70.776ZM124.313 67.96C123.017 67.96 122.073 68.792 121.881 70.04H126.729C126.569 68.808 125.625 67.96 124.313 67.96Z" fill="#E3E3E3"/>
</g>
<path opacity="0.25" d="M47.284 33.6H48.484V42H47.5L42.46 35.736V42H41.26V33.6H42.244L47.284 39.864V33.6ZM57.4543 42L56.5303 39.9H52.0663L51.1423 42H49.9063L53.7103 33.6H54.8983L58.7143 42H57.4543ZM52.4863 38.94H56.1103L54.2983 34.824L52.4863 38.94ZM69.0873 42H67.9353L67.9233 35.88L64.8873 40.98H64.3353L61.2993 35.916V42H60.1473V33.6H61.1313L64.6353 39.504L68.0913 33.6H69.0753L69.0873 42ZM72.9883 40.956H77.8843V42H71.7883V33.6H77.7163V34.644H72.9883V37.224H77.2003V38.244H72.9883V40.956Z" fill="#E3E3E3"/>
<g filter="url(#filter1_b_1_236)">
<rect x="30" y="124" width="340" height="40" rx="4" fill="#05343B" fill-opacity="0.5"/>
<path opacity="0.5" d="M58.376 138.8H60.456V150H58.376V145.2H52.584V150H50.504V138.8H52.584V143.424H58.376V138.8ZM67.3451 150.112C64.7211 150.112 62.8011 148.288 62.8011 145.728C62.8011 143.168 64.7211 141.36 67.3451 141.36C70.0011 141.36 71.9051 143.168 71.9051 145.728C71.9051 148.288 70.0011 150.112 67.3451 150.112ZM67.3451 148.4C68.8011 148.4 69.8891 147.36 69.8891 145.728C69.8891 144.096 68.8011 143.056 67.3451 143.056C65.9051 143.056 64.8171 144.096 64.8171 145.728C64.8171 147.36 65.9051 148.4 67.3451 148.4ZM80.3296 141.456H82.3296V150H80.4256V148.912C79.7856 149.696 78.7776 150.112 77.6736 150.112C75.4816 150.112 73.9936 148.912 73.9936 146.336V141.456H75.9936V146.064C75.9936 147.616 76.7296 148.352 77.9936 148.352C79.3856 148.352 80.3296 147.488 80.3296 145.776V141.456ZM87.8283 150.112C86.4043 150.112 84.9803 149.696 84.2123 149.152L84.9803 147.632C85.7323 148.128 86.8843 148.48 87.9563 148.48C89.2203 148.48 89.7483 148.128 89.7483 147.536C89.7483 145.904 84.4683 147.44 84.4683 144.032C84.4683 142.416 85.9243 141.36 88.2283 141.36C89.3643 141.36 90.6603 141.632 91.4283 142.096L90.6603 143.616C89.8443 143.136 89.0283 142.976 88.2123 142.976C86.9963 142.976 86.4203 143.376 86.4203 143.936C86.4203 145.664 91.7003 144.128 91.7003 147.472C91.7003 149.072 90.2283 150.112 87.8283 150.112ZM101.695 145.776C101.695 145.936 101.679 146.176 101.663 146.368H94.9586C95.1986 147.616 96.2386 148.416 97.7266 148.416C98.6866 148.416 99.4386 148.112 100.047 147.488L101.119 148.72C100.351 149.632 99.1506 150.112 97.6786 150.112C94.8146 150.112 92.9586 148.272 92.9586 145.728C92.9586 143.184 94.8306 141.36 97.3746 141.36C99.8706 141.36 101.695 143.104 101.695 145.776ZM97.3746 142.96C96.0786 142.96 95.1346 143.792 94.9426 145.04H99.7906C99.6306 143.808 98.6866 142.96 97.3746 142.96ZM120.07 141.456H121.846L118.694 150H116.774L114.566 144.112L112.326 150H110.406L107.27 141.456H109.158L111.414 147.76L113.766 141.456H115.446L117.75 147.792L120.07 141.456ZM124.469 140.048C123.733 140.048 123.189 139.52 123.189 138.848C123.189 138.176 123.733 137.648 124.469 137.648C125.205 137.648 125.749 138.144 125.749 138.8C125.749 139.504 125.221 140.048 124.469 140.048ZM123.461 150V141.456H125.461V150H123.461ZM132.902 148.112L133.462 149.536C132.982 149.92 132.262 150.112 131.542 150.112C129.67 150.112 128.598 149.12 128.598 147.232V143.12H127.19V141.52H128.598V139.568H130.598V141.52H132.886V143.12H130.598V147.184C130.598 148.016 131.014 148.464 131.782 148.464C132.198 148.464 132.598 148.352 132.902 148.112ZM140.195 141.36C142.243 141.36 143.763 142.528 143.763 145.104V150H141.763V145.36C141.763 143.84 141.011 143.104 139.731 143.104C138.307 143.104 137.347 143.968 137.347 145.68V150H135.347V138.128H137.347V142.448C138.003 141.744 139.011 141.36 140.195 141.36ZM154.466 141.36C156.93 141.36 158.354 142.528 158.354 144.992V150H156.466V148.96C155.986 149.696 155.058 150.112 153.778 150.112C151.826 150.112 150.594 149.04 150.594 147.552C150.594 146.128 151.554 145.008 154.146 145.008H156.354V144.88C156.354 143.712 155.65 143.024 154.226 143.024C153.266 143.024 152.274 143.344 151.634 143.872L150.85 142.416C151.762 141.712 153.09 141.36 154.466 141.36ZM154.194 148.656C155.17 148.656 156.018 148.208 156.354 147.328V146.336H154.29C152.93 146.336 152.562 146.848 152.562 147.472C152.562 148.192 153.17 148.656 154.194 148.656ZM171.903 141.456H173.823L170.159 150H168.095L164.431 141.456H166.511L169.167 147.792L171.903 141.456ZM176.321 140.048C175.585 140.048 175.041 139.52 175.041 138.848C175.041 138.176 175.585 137.648 176.321 137.648C177.057 137.648 177.601 138.144 177.601 138.8C177.601 139.504 177.073 140.048 176.321 140.048ZM175.313 150V141.456H177.313V150H175.313ZM188.21 145.776C188.21 145.936 188.194 146.176 188.178 146.368H181.474C181.714 147.616 182.754 148.416 184.242 148.416C185.202 148.416 185.954 148.112 186.562 147.488L187.634 148.72C186.866 149.632 185.666 150.112 184.194 150.112C181.33 150.112 179.474 148.272 179.474 145.728C179.474 143.184 181.346 141.36 183.89 141.36C186.386 141.36 188.21 143.104 188.21 145.776ZM183.89 142.96C182.594 142.96 181.65 143.792 181.458 145.04H186.306C186.146 143.808 185.202 142.96 183.89 142.96ZM201.766 141.456H203.542L200.39 150H198.47L196.262 144.112L194.022 150H192.102L188.966 141.456H190.854L193.11 147.76L195.462 141.456H197.142L199.446 147.792L201.766 141.456Z" fill="#E3E3E3"/>
</g>
<path opacity="0.25" d="M41.26 117V108.6H44.8C47.5 108.6 49.336 110.304 49.336 112.8C49.336 115.296 47.5 117 44.8 117H41.26ZM42.46 115.956H44.728C46.804 115.956 48.136 114.684 48.136 112.8C48.136 110.916 46.804 109.644 44.728 109.644H42.46V115.956ZM52.5541 115.956H57.4501V117H51.3541V108.6H57.2821V109.644H52.5541V112.224H56.7661V113.244H52.5541V115.956ZM62.0211 117.096C60.7371 117.096 59.4771 116.664 58.8051 116.04L59.2491 115.104C59.8731 115.668 60.9411 116.076 62.0211 116.076C63.4731 116.076 64.0971 115.512 64.0971 114.78C64.0971 112.728 59.0091 114.024 59.0091 110.904C59.0091 109.608 60.0171 108.504 62.2251 108.504C63.2091 108.504 64.2291 108.768 64.9251 109.248L64.5291 110.208C63.7971 109.74 62.9691 109.524 62.2251 109.524C60.7971 109.524 60.1851 110.124 60.1851 110.856C60.1851 112.908 65.2731 111.624 65.2731 114.708C65.2731 115.992 64.2411 117.096 62.0211 117.096ZM70.9623 117.096C68.4183 117.096 66.5223 115.284 66.5223 112.8C66.5223 110.316 68.4183 108.504 70.9743 108.504C72.2703 108.504 73.3983 108.948 74.1663 109.812L73.3863 110.568C72.7383 109.884 71.9463 109.572 71.0223 109.572C69.1263 109.572 67.7223 110.94 67.7223 112.8C67.7223 114.66 69.1263 116.028 71.0223 116.028C71.9463 116.028 72.7383 115.704 73.3863 115.02L74.1663 115.776C73.3983 116.64 72.2703 117.096 70.9623 117.096ZM82.9821 117H81.6741L79.8621 114.42C79.6941 114.432 79.5141 114.444 79.3341 114.444H77.2581V117H76.0581V108.6H79.3341C81.5181 108.6 82.8381 109.704 82.8381 111.528C82.8381 112.824 82.1661 113.76 80.9901 114.18L82.9821 117ZM79.2981 113.424C80.8341 113.424 81.6381 112.728 81.6381 111.528C81.6381 110.328 80.8341 109.644 79.2981 109.644H77.2581V113.424H79.2981ZM84.9569 117V108.6H86.1569V117H84.9569ZM92.1277 108.6C94.3117 108.6 95.6317 109.704 95.6317 111.528C95.6317 113.352 94.3117 114.456 92.1277 114.456H90.0517V117H88.8517V108.6H92.1277ZM92.0917 113.412C93.6277 113.412 94.4317 112.728 94.4317 111.528C94.4317 110.328 93.6277 109.644 92.0917 109.644H90.0517V113.412H92.0917ZM98.9732 117V109.644H96.0932V108.6H103.041V109.644H100.161V117H98.9732ZM104.528 117V108.6H105.728V117H104.528ZM112.215 117.096C109.635 117.096 107.739 115.26 107.739 112.8C107.739 110.34 109.635 108.504 112.215 108.504C114.771 108.504 116.667 110.328 116.667 112.8C116.667 115.272 114.771 117.096 112.215 117.096ZM112.215 116.028C114.075 116.028 115.467 114.66 115.467 112.8C115.467 110.94 114.075 109.572 112.215 109.572C110.331 109.572 108.939 110.94 108.939 112.8C108.939 114.66 110.331 116.028 112.215 116.028ZM124.705 108.6H125.905V117H124.921L119.881 110.736V117H118.681V108.6H119.665L124.705 114.864V108.6Z" fill="#E3E3E3"/>
<g filter="url(#filter2_b_1_236)">
<rect x="30" y="199" width="340" height="40" rx="4" fill="#05343B" fill-opacity="0.5"/>
<path opacity="0.5" d="M58.504 221.832C58.504 223.464 57.304 224.872 54.792 225.128V226.92H53.48V225.144C51.912 225.048 50.392 224.536 49.56 223.816L50.28 222.2C51.064 222.84 52.264 223.304 53.48 223.416V220.216C51.704 219.784 49.8 219.208 49.8 216.984C49.8 215.352 50.984 213.928 53.48 213.688V211.88H54.792V213.656C55.976 213.72 57.176 214.072 58.04 214.632L57.384 216.248C56.536 215.752 55.64 215.48 54.792 215.384V218.616C56.568 219.048 58.504 219.608 58.504 221.832ZM51.864 216.888C51.864 217.656 52.552 218.008 53.48 218.28V215.432C52.344 215.608 51.864 216.184 51.864 216.888ZM54.792 223.384C55.96 223.208 56.456 222.664 56.456 221.976C56.456 221.192 55.752 220.824 54.792 220.552V223.384ZM62.8385 223.24H68.1185V225H59.8625V223.608L64.3105 219.384C65.3985 218.344 65.5905 217.688 65.5905 217.064C65.5905 216.04 64.8865 215.448 63.5105 215.448C62.4225 215.448 61.5105 215.816 60.8865 216.616L59.4305 215.496C60.2945 214.328 61.8465 213.64 63.6865 213.64C66.1185 213.64 67.6865 214.872 67.6865 216.856C67.6865 217.944 67.3825 218.936 65.8305 220.392L62.8385 223.24ZM70.9632 225.112C70.2432 225.112 69.6512 224.552 69.6512 223.784C69.6512 222.984 70.2432 222.456 70.9632 222.456C71.6832 222.456 72.2752 222.984 72.2752 223.784C72.2752 224.552 71.6832 225.112 70.9632 225.112ZM78.346 225.16C75.69 225.16 73.674 223.08 73.674 219.4C73.674 215.72 75.69 213.64 78.346 213.64C81.018 213.64 83.034 215.72 83.034 219.4C83.034 223.08 81.018 225.16 78.346 225.16ZM78.346 223.352C79.882 223.352 80.938 222.104 80.938 219.4C80.938 216.696 79.882 215.448 78.346 215.448C76.826 215.448 75.77 216.696 75.77 219.4C75.77 222.104 76.826 223.352 78.346 223.352ZM89.3516 225.16C86.6956 225.16 84.6796 223.08 84.6796 219.4C84.6796 215.72 86.6956 213.64 89.3516 213.64C92.0236 213.64 94.0396 215.72 94.0396 219.4C94.0396 223.08 92.0236 225.16 89.3516 225.16ZM89.3516 223.352C90.8876 223.352 91.9436 222.104 91.9436 219.4C91.9436 216.696 90.8876 215.448 89.3516 215.448C87.8316 215.448 86.7756 216.696 86.7756 219.4C86.7756 222.104 87.8316 223.352 89.3516 223.352ZM100.357 225.16C97.7013 225.16 95.6853 223.08 95.6853 219.4C95.6853 215.72 97.7013 213.64 100.357 213.64C103.029 213.64 105.045 215.72 105.045 219.4C105.045 223.08 103.029 225.16 100.357 225.16ZM100.357 223.352C101.893 223.352 102.949 222.104 102.949 219.4C102.949 216.696 101.893 215.448 100.357 215.448C98.8373 215.448 97.7813 216.696 97.7813 219.4C97.7813 222.104 98.8373 223.352 100.357 223.352ZM107.751 225.112C107.031 225.112 106.439 224.552 106.439 223.784C106.439 222.984 107.031 222.456 107.751 222.456C108.471 222.456 109.063 222.984 109.063 223.784C109.063 224.552 108.471 225.112 107.751 225.112ZM115.134 225.16C112.478 225.16 110.462 223.08 110.462 219.4C110.462 215.72 112.478 213.64 115.134 213.64C117.806 213.64 119.822 215.72 119.822 219.4C119.822 223.08 117.806 225.16 115.134 225.16ZM115.134 223.352C116.67 223.352 117.726 222.104 117.726 219.4C117.726 216.696 116.67 215.448 115.134 215.448C113.614 215.448 112.558 216.696 112.558 219.4C112.558 222.104 113.614 223.352 115.134 223.352ZM126.14 225.16C123.484 225.16 121.468 223.08 121.468 219.4C121.468 215.72 123.484 213.64 126.14 213.64C128.812 213.64 130.828 215.72 130.828 219.4C130.828 223.08 128.812 225.16 126.14 225.16ZM126.14 223.352C127.676 223.352 128.732 222.104 128.732 219.4C128.732 216.696 127.676 215.448 126.14 215.448C124.62 215.448 123.564 216.696 123.564 219.4C123.564 222.104 124.62 223.352 126.14 223.352ZM137.145 225.16C134.489 225.16 132.473 223.08 132.473 219.4C132.473 215.72 134.489 213.64 137.145 213.64C139.817 213.64 141.833 215.72 141.833 219.4C141.833 223.08 139.817 225.16 137.145 225.16ZM137.145 223.352C138.681 223.352 139.737 222.104 139.737 219.4C139.737 216.696 138.681 215.448 137.145 215.448C135.625 215.448 134.569 216.696 134.569 219.4C134.569 222.104 135.625 223.352 137.145 223.352Z" fill="#E3E3E3"/>
</g>
<path opacity="0.25" d="M47.536 192L46.612 189.9H42.148L41.224 192H39.988L43.792 183.6H44.98L48.796 192H47.536ZM42.568 188.94H46.192L44.38 184.824L42.568 188.94ZM52.6771 192.096C51.3931 192.096 50.1331 191.664 49.4611 191.04L49.9051 190.104C50.5291 190.668 51.5971 191.076 52.6771 191.076C54.1291 191.076 54.7531 190.512 54.7531 189.78C54.7531 187.728 49.6651 189.024 49.6651 185.904C49.6651 184.608 50.6731 183.504 52.8811 183.504C53.8651 183.504 54.8851 183.768 55.5811 184.248L55.1851 185.208C54.4531 184.74 53.6251 184.524 52.8811 184.524C51.4531 184.524 50.8411 185.124 50.8411 185.856C50.8411 187.908 55.9291 186.624 55.9291 189.708C55.9291 190.992 54.8971 192.096 52.6771 192.096ZM63.8142 192L60.5982 188.268L59.0622 189.828V192H57.8622V183.6H59.0622V188.292L63.6222 183.6H64.9902L61.4022 187.38L65.2182 192H63.8142ZM66.6672 192V183.6H67.8672V192H66.6672ZM76.586 183.6H77.786V192H76.802L71.762 185.736V192H70.562V183.6H71.546L76.586 189.864V183.6ZM86.3003 190.488V187.752H87.4523V191.028C86.6123 191.736 85.4483 192.096 84.2723 192.096C81.6923 192.096 79.7963 190.284 79.7963 187.8C79.7963 185.316 81.6923 183.504 84.2963 183.504C85.6283 183.504 86.7563 183.948 87.5243 184.8L86.7803 185.544C86.0843 184.872 85.2923 184.572 84.3443 184.572C82.4003 184.572 80.9963 185.928 80.9963 187.8C80.9963 189.648 82.4003 191.028 84.3323 191.028C85.0403 191.028 85.7003 190.872 86.3003 190.488ZM96.6085 183.6C98.7925 183.6 100.112 184.704 100.112 186.528C100.112 188.352 98.7925 189.456 96.6085 189.456H94.5325V192H93.3325V183.6H96.6085ZM96.5725 188.412C98.1085 188.412 98.9125 187.728 98.9125 186.528C98.9125 185.328 98.1085 184.644 96.5725 184.644H94.5325V188.412H96.5725ZM108.979 192H107.671L105.859 189.42C105.691 189.432 105.511 189.444 105.331 189.444H103.255V192H102.055V183.6H105.331C107.515 183.6 108.835 184.704 108.835 186.528C108.835 187.824 108.163 188.76 106.987 189.18L108.979 192ZM105.295 188.424C106.831 188.424 107.635 187.728 107.635 186.528C107.635 185.328 106.831 184.644 105.295 184.644H103.255V188.424H105.295ZM110.954 192V183.6H112.154V192H110.954ZM118.605 192.096C116.061 192.096 114.165 190.284 114.165 187.8C114.165 185.316 116.061 183.504 118.617 183.504C119.913 183.504 121.041 183.948 121.809 184.812L121.029 185.568C120.381 184.884 119.589 184.572 118.665 184.572C116.769 184.572 115.365 185.94 115.365 187.8C115.365 189.66 116.769 191.028 118.665 191.028C119.589 191.028 120.381 190.704 121.029 190.02L121.809 190.776C121.041 191.64 119.913 192.096 118.605 192.096ZM124.901 190.956H129.797V192H123.701V183.6H129.629V184.644H124.901V187.224H129.113V188.244H124.901V190.956Z" fill="#E3E3E3"/>
<defs>
<filter id="filter0_b_1_236" x="-20" y="-1" width="440" height="140" filterUnits="userSpaceOnUse" color-interpolation-filters="sRGB">
<feFlood flood-opacity="0" result="BackgroundImageFix"/>
<feGaussianBlur in="BackgroundImageFix" stdDeviation="25"/>
<feComposite in2="SourceAlpha" operator="in" result="effect1_backgroundBlur_1_236"/>
<feBlend mode="normal" in="SourceGraphic" in2="effect1_backgroundBlur_1_236" result="shape"/>
</filter>
<filter id="filter1_b_1_236" x="-20" y="74" width="440" height="140" filterUnits="userSpaceOnUse" color-interpolation-filters="sRGB">
<feFlood flood-opacity="0" result="BackgroundImageFix"/>
<feGaussianBlur in="BackgroundImageFix" stdDeviation="25"/>
<feComposite in2="SourceAlpha" operator="in" result="effect1_backgroundBlur_1_236"/>
<feBlend mode="normal" in="SourceGraphic" in2="effect1_backgroundBlur_1_236" result="shape"/>
</filter>
<filter id="filter2_b_1_236" x="-20" y="149" width="440" height="140" filterUnits="userSpaceOnUse" color-interpolation-filters="sRGB">
<feFlood flood-opacity="0" result="BackgroundImageFix"/>
<feGaussianBlur in="BackgroundImageFix" stdDeviation="25"/>
<feComposite in2="SourceAlpha" operator="in" result="effect1_backgroundBlur_1_236"/>
<feBlend mode="normal" in="SourceGraphic" in2="effect1_backgroundBlur_1_236" result="shape"/>
</filter>
</defs>
</svg>
