<svg width="142" height="60" fill="none" xmlns="http://www.w3.org/2000/svg"><rect x=".5" y=".5" width="141" height="59" rx="7.5" fill="#002429"/><rect x=".5" y=".5" width="141" height="59" rx="7.5" stroke="#05343B"/><path opacity=".5" d="M21.68 36V24.8h1.6V36h-1.6zm9.257-1.6.48 1.104c-.464.4-1.168.592-1.856.592-1.712 0-2.688-.944-2.688-2.656v-4.656h-1.44V27.52h1.44v-1.856h1.536v1.856h2.432v1.264H28.41v4.592c0 .912.48 1.424 1.328 1.424.448 0 .88-.144 1.2-.4zm2.961-10.368c.608 0 1.04.464 1.04 1.088 0 .304-.048.544-.256 1.136l-.768 2.24h-1.008l.592-2.384c-.4-.144-.672-.512-.672-.992 0-.64.464-1.088 1.072-1.088zm5.647 12.064c-1.407 0-2.8-.432-3.504-.992l.64-1.216c.72.512 1.873.88 2.977.88 1.423 0 2.015-.432 2.015-1.152 0-1.904-5.36-.256-5.36-3.632 0-1.52 1.36-2.544 3.536-2.544 1.105 0 2.353.288 3.089.768l-.657 1.216c-.767-.496-1.615-.672-2.447-.672-1.345 0-2 .496-2 1.168 0 2 5.375.368 5.375 3.664 0 1.536-1.408 2.512-3.664 2.512zm13.449-8.656c2.32 0 3.632 1.12 3.632 3.44V36H55.17v-1.12c-.512.768-1.456 1.216-2.784 1.216-1.92 0-3.136-1.024-3.136-2.496 0-1.36.88-2.48 3.408-2.48h2.432v-.304c0-1.296-.752-2.048-2.272-2.048-1.008 0-2.032.352-2.688.912l-.64-1.152c.88-.704 2.144-1.088 3.504-1.088zm-.352 7.472c1.152 0 2.064-.528 2.448-1.504v-1.184h-2.368c-1.52 0-1.952.592-1.952 1.312 0 .848.704 1.376 1.872 1.376zm22.211-7.472c2.064 0 3.472 1.184 3.472 3.68V36H76.79v-4.704c0-1.664-.8-2.48-2.192-2.48-1.536 0-2.544.976-2.544 2.816V36h-1.536v-4.704c0-1.664-.8-2.48-2.192-2.48-1.536 0-2.544.976-2.544 2.816V36h-1.536v-8.48h1.472v1.264c.608-.864 1.648-1.344 2.928-1.344 1.296 0 2.384.512 2.944 1.568.64-.96 1.824-1.568 3.264-1.568zm9.627 0c2.32 0 3.632 1.12 3.632 3.44V36h-1.456v-1.12c-.512.768-1.456 1.216-2.784 1.216-1.92 0-3.136-1.024-3.136-2.496 0-1.36.88-2.48 3.408-2.48h2.432v-.304c0-1.296-.752-2.048-2.272-2.048-1.008 0-2.032.352-2.688.912l-.64-1.152c.88-.704 2.144-1.088 3.504-1.088zm-.352 7.472c1.152 0 2.064-.528 2.448-1.504v-1.184h-2.368c-1.52 0-1.952.592-1.952 1.312 0 .848.704 1.376 1.872 1.376zm11.354-.512.48 1.104c-.464.4-1.168.592-1.856.592-1.712 0-2.688-.944-2.688-2.656v-4.656h-1.44V27.52h1.44v-1.856h1.536v1.856h2.432v1.264h-2.432v4.592c0 .912.48 1.424 1.328 1.424.448 0 .88-.144 1.2-.4zm5.992 1.696c-2.608 0-4.48-1.808-4.48-4.336 0-2.528 1.872-4.32 4.48-4.32 1.52 0 2.784.624 3.456 1.808l-1.168.752c-.544-.832-1.376-1.216-2.304-1.216-1.664 0-2.912 1.168-2.912 2.976 0 1.84 1.248 2.992 2.912 2.992.928 0 1.76-.384 2.304-1.216l1.168.736c-.672 1.184-1.936 1.824-3.456 1.824zm10.103-8.656c2.064 0 3.52 1.184 3.52 3.68V36h-1.536v-4.704c0-1.664-.832-2.48-2.288-2.48-1.632 0-2.688.976-2.688 2.816V36h-1.536V24.128h1.536v4.592c.64-.816 1.696-1.28 2.992-1.28zm6.683 5.024-.288-7.664h1.808l-.304 7.664h-1.216zm.624 3.632c-.608 0-1.056-.464-1.056-1.024 0-.576.448-1.024 1.056-1.024.592 0 1.024.448 1.024 1.024a1.01 1.01 0 0 1-1.024 1.024z" fill="#E3E3E3"/></svg>