<svg width="300" height="80" fill="none" xmlns="http://www.w3.org/2000/svg"><rect x=".5" y=".5" width="299" height="79" rx="7.5" fill="#002429"/><rect x=".5" y=".5" width="299" height="79" rx="7.5" stroke="#05343B"/><path opacity=".5" d="M35.984 24.8h1.52L33.76 36h-1.68l-3.056-8.944L25.968 36h-1.712l-3.744-11.2h1.648l3.024 9.104 3.152-9.104h1.472l3.088 9.152 3.088-9.152zm10.517 7.008c0 .128-.016.32-.032.464h-6.88c.192 1.488 1.392 2.48 3.072 2.48.992 0 1.824-.336 2.448-1.024l.848.992c-.768.896-1.936 1.376-3.344 1.376-2.736 0-4.56-1.808-4.56-4.336 0-2.512 1.808-4.32 4.256-4.32 2.448 0 4.192 1.76 4.192 4.368zm-4.192-3.072c-1.472 0-2.56.992-2.72 2.432h5.44c-.16-1.424-1.232-2.432-2.72-2.432zm15.597-1.296c2.48 0 4.288 1.728 4.288 4.32 0 2.592-1.808 4.336-4.288 4.336-1.248 0-2.336-.48-3.024-1.44V36H53.41V24.128h1.536V28.8c.704-.912 1.76-1.36 2.96-1.36zm-.128 7.312c1.632 0 2.864-1.184 2.864-2.992s-1.232-2.976-2.864-2.976c-1.616 0-2.848 1.168-2.848 2.976s1.232 2.992 2.848 2.992zm14.443-2.944c0 .128-.016.32-.032.464h-6.88c.192 1.488 1.392 2.48 3.072 2.48.992 0 1.824-.336 2.448-1.024l.848.992c-.768.896-1.936 1.376-3.344 1.376-2.736 0-4.56-1.808-4.56-4.336 0-2.512 1.808-4.32 4.256-4.32 2.448 0 4.192 1.76 4.192 4.368zm-4.192-3.072c-1.472 0-2.56.992-2.72 2.432h5.44c-.16-1.424-1.232-2.432-2.72-2.432zM74.594 36V24.128h1.535V36h-1.535zm5.476-10.112c-.592 0-1.04-.432-1.04-.992s.448-1.008 1.04-1.008c.592 0 1.04.432 1.04.976 0 .576-.432 1.024-1.04 1.024zM79.302 36v-8.48h1.536V36h-1.536zm12.373-4.192c0 .128-.016.32-.032.464h-6.88c.192 1.488 1.392 2.48 3.072 2.48.992 0 1.824-.336 2.448-1.024l.848.992c-.768.896-1.936 1.376-3.344 1.376-2.736 0-4.56-1.808-4.56-4.336 0-2.512 1.808-4.32 4.256-4.32 2.448 0 4.192 1.76 4.192 4.368zm-4.192-3.072c-1.472 0-2.56.992-2.72 2.432h5.44c-.16-1.424-1.232-2.432-2.72-2.432zm12.409-1.216h1.504L97.684 36h-1.568l-3.712-8.48h1.6l2.912 6.8 2.976-6.8zm10.607 4.288c0 .128-.016.32-.032.464h-6.88c.192 1.488 1.392 2.48 3.072 2.48.992 0 1.824-.336 2.448-1.024l.848.992c-.768.896-1.936 1.376-3.344 1.376-2.736 0-4.56-1.808-4.56-4.336 0-2.512 1.808-4.32 4.256-4.32 2.448 0 4.192 1.76 4.192 4.368zm-4.192-3.072c-1.472 0-2.56.992-2.72 2.432h5.44c-.16-1.424-1.232-2.432-2.72-2.432zm15.389 5.664.48 1.104c-.464.4-1.168.592-1.856.592-1.712 0-2.688-.944-2.688-2.656v-4.656h-1.44V27.52h1.44v-1.856h1.536v1.856h2.432v1.264h-2.432v4.592c0 .912.48 1.424 1.328 1.424.448 0 .88-.144 1.2-.4zm7.105-6.96c2.064 0 3.52 1.184 3.52 3.68V36h-1.536v-4.704c0-1.664-.832-2.48-2.288-2.48-1.632 0-2.688.976-2.688 2.816V36h-1.536V24.128h1.536v4.592c.64-.816 1.696-1.28 2.992-1.28zm14.314 4.368c0 .128-.016.32-.032.464h-6.88c.192 1.488 1.392 2.48 3.072 2.48.992 0 1.824-.336 2.448-1.024l.848.992c-.768.896-1.936 1.376-3.344 1.376-2.736 0-4.56-1.808-4.56-4.336 0-2.512 1.808-4.32 4.256-4.32 2.448 0 4.192 1.76 4.192 4.368zm-4.192-3.072c-1.472 0-2.56.992-2.72 2.432h5.44c-.16-1.424-1.232-2.432-2.72-2.432zm8.997 7.36c-1.408 0-2.8-.432-3.504-.992l.64-1.216c.72.512 1.872.88 2.976.88 1.424 0 2.016-.432 2.016-1.152 0-1.904-5.36-.256-5.36-3.632 0-1.52 1.36-2.544 3.536-2.544 1.104 0 2.352.288 3.088.768l-.656 1.216c-.768-.496-1.616-.672-2.448-.672-1.344 0-2 .496-2 1.168 0 2 5.376.368 5.376 3.664 0 1.536-1.408 2.512-3.664 2.512zm13.488-4.288c0 .128-.016.32-.032.464h-6.88c.192 1.488 1.392 2.48 3.072 2.48.992 0 1.824-.336 2.448-1.024l.848.992c-.768.896-1.936 1.376-3.344 1.376-2.736 0-4.56-1.808-4.56-4.336 0-2.512 1.808-4.32 4.256-4.32 2.448 0 4.192 1.76 4.192 4.368zm-4.192-3.072c-1.472 0-2.56.992-2.72 2.432h5.44c-.16-1.424-1.232-2.432-2.72-2.432zm14.189-1.296c2.32 0 3.632 1.12 3.632 3.44V36h-1.456v-1.12c-.512.768-1.456 1.216-2.784 1.216-1.92 0-3.136-1.024-3.136-2.496 0-1.36.88-2.48 3.408-2.48h2.432v-.304c0-1.296-.752-2.048-2.272-2.048-1.008 0-2.032.352-2.688.912l-.64-1.152c.88-.704 2.144-1.088 3.504-1.088zm-.352 7.472c1.152 0 2.064-.528 2.448-1.504v-1.184h-2.368c-1.52 0-1.952.592-1.952 1.312 0 .848.704 1.376 1.872 1.376zm13.77-7.392h1.456v7.328c0 2.992-1.52 4.352-4.4 4.352-1.552 0-3.12-.432-4.048-1.264l.736-1.184c.784.672 2.016 1.104 3.264 1.104 2 0 2.912-.928 2.912-2.848v-.672c-.736.88-1.84 1.312-3.056 1.312-2.448 0-4.304-1.664-4.304-4.112 0-2.448 1.856-4.096 4.304-4.096 1.264 0 2.416.464 3.136 1.392V27.52zm-2.96 6.784c1.696 0 2.912-1.136 2.912-2.768 0-1.648-1.216-2.752-2.912-2.752-1.712 0-2.928 1.104-2.928 2.752 0 1.632 1.216 2.768 2.928 2.768zm15.254-2.496c0 .128-.016.32-.032.464h-6.88c.192 1.488 1.392 2.48 3.072 2.48.992 0 1.824-.336 2.448-1.024l.848.992c-.768.896-1.936 1.376-3.344 1.376-2.736 0-4.56-1.808-4.56-4.336 0-2.512 1.808-4.32 4.256-4.32 2.448 0 4.192 1.76 4.192 4.368zm-4.192-3.072c-1.472 0-2.56.992-2.72 2.432h5.44c-.16-1.424-1.232-2.432-2.72-2.432zm11.093-1.296c2.064 0 3.52 1.184 3.52 3.68V36h-1.536v-4.704c0-1.664-.832-2.48-2.288-2.48-1.632 0-2.688.976-2.688 2.816V36h-1.536v-8.48h1.472v1.28c.624-.864 1.712-1.36 3.056-1.36zm10.891 6.96.48 1.104c-.464.4-1.168.592-1.856.592-1.712 0-2.688-.944-2.688-2.656v-4.656h-1.44V27.52h1.44v-1.856h1.536v1.856h2.432v1.264h-2.432v4.592c0 .912.48 1.424 1.328 1.424.448 0 .88-.144 1.2-.4zm5.009 1.696c-1.408 0-2.8-.432-3.504-.992l.64-1.216c.72.512 1.872.88 2.976.88 1.424 0 2.016-.432 2.016-1.152 0-1.904-5.36-.256-5.36-3.632 0-1.52 1.36-2.544 3.536-2.544 1.104 0 2.352.288 3.088.768l-.656 1.216c-.768-.496-1.616-.672-2.448-.672-1.344 0-2 .496-2 1.168 0 2 5.376.368 5.376 3.664 0 1.536-1.408 2.512-3.664 2.512zM24.544 47.44c2.32 0 3.632 1.12 3.632 3.44V56H26.72v-1.12c-.512.768-1.456 1.216-2.784 1.216-1.92 0-3.136-1.024-3.136-2.496 0-1.36.88-2.48 3.408-2.48h2.432v-.304c0-1.296-.752-2.048-2.272-2.048-1.008 0-2.032.352-2.688.912l-.64-1.152c.88-.704 2.144-1.088 3.504-1.088zm-.352 7.472c1.152 0 2.064-.528 2.448-1.504v-1.184h-2.368c-1.52 0-1.952.592-1.952 1.312 0 .848.704 1.376 1.872 1.376zm8.538-5.968c.545-.992 1.6-1.504 3.089-1.504v1.488c-.129-.016-.24-.016-.352-.016-1.648 0-2.672 1.008-2.672 2.864V56h-1.537v-8.48h1.473v1.424zm12.808 2.864c0 .128-.016.32-.032.464h-6.88c.192 1.488 1.392 2.48 3.072 2.48.992 0 1.824-.336 2.447-1.024l.848.992c-.768.896-1.936 1.376-3.343 1.376-2.736 0-4.56-1.808-4.56-4.336 0-2.512 1.807-4.32 4.255-4.32 2.449 0 4.193 1.76 4.193 4.368zm-4.192-3.072c-1.472 0-2.56.992-2.72 2.432h5.44c-.16-1.424-1.233-2.432-2.72-2.432zm14.19-1.296c2.32 0 3.631 1.12 3.631 3.44V56h-1.456v-1.12c-.512.768-1.456 1.216-2.784 1.216-1.92 0-3.136-1.024-3.136-2.496 0-1.36.88-2.48 3.408-2.48h2.432v-.304c0-1.296-.752-2.048-2.272-2.048-1.008 0-2.032.352-2.688.912l-.64-1.152c.88-.704 2.144-1.088 3.504-1.088zm-.353 7.472c1.152 0 2.064-.528 2.448-1.504v-1.184h-2.368c-1.52 0-1.952.592-1.952 1.312 0 .848.704 1.376 1.872 1.376zm18.26-7.392h1.456v7.328c0 2.992-1.52 4.352-4.4 4.352-1.552 0-3.12-.432-4.048-1.264l.736-1.184c.784.672 2.016 1.104 3.264 1.104 2 0 2.912-.928 2.912-2.848v-.672c-.736.88-1.84 1.312-3.056 1.312-2.448 0-4.304-1.664-4.304-4.112 0-2.448 1.856-4.096 4.304-4.096 1.264 0 2.416.464 3.136 1.392V47.52zm-2.96 6.784c1.696 0 2.912-1.136 2.912-2.768 0-1.648-1.216-2.752-2.912-2.752-1.712 0-2.928 1.104-2.928 2.752 0 1.632 1.216 2.768 2.928 2.768zm11.222 1.792c-2.543 0-4.415-1.808-4.415-4.336 0-2.528 1.871-4.32 4.415-4.32s4.4 1.792 4.4 4.32c0 2.528-1.856 4.336-4.4 4.336zm0-1.344c1.633 0 2.849-1.184 2.849-2.992s-1.216-2.976-2.849-2.976c-1.632 0-2.864 1.168-2.864 2.976s1.233 2.992 2.865 2.992zm10.397 1.344c-2.544 0-4.416-1.808-4.416-4.336 0-2.528 1.872-4.32 4.416-4.32 2.544 0 4.4 1.792 4.4 4.32 0 2.528-1.856 4.336-4.4 4.336zm0-1.344c1.632 0 2.848-1.184 2.848-2.992s-1.216-2.976-2.848-2.976-2.864 1.168-2.864 2.976 1.232 2.992 2.864 2.992zm13.228-10.624h1.536V56h-1.472v-1.344c-.688.96-1.776 1.44-3.024 1.44-2.48 0-4.288-1.744-4.288-4.336 0-2.592 1.808-4.32 4.288-4.32 1.2 0 2.256.448 2.96 1.36v-4.672zm-2.832 10.624c1.616 0 2.848-1.184 2.848-2.992s-1.232-2.976-2.848-2.976c-1.632 0-2.864 1.168-2.864 2.976s1.232 2.992 2.864 2.992zm19.747-8.864c-.592 0-1.04-.432-1.04-.992s.448-1.008 1.04-1.008c.592 0 1.04.432 1.04.976 0 .576-.432 1.024-1.04 1.024zm-7.472.88c0-1.648.992-2.736 2.8-2.736.656 0 1.296.16 1.728.496l-.464 1.168a1.99 1.99 0 0 0-1.184-.4c-.912 0-1.376.512-1.376 1.488v.736h2.464v1.264h-2.432V56h-1.536v-7.216h-1.44V47.52h1.44v-.752zM121.477 56v-8.48h1.536V56h-1.536zm8.991-1.6.48 1.104c-.464.4-1.168.592-1.856.592-1.712 0-2.688-.944-2.688-2.656v-4.656h-1.44V47.52h1.44v-1.856h1.536v1.856h2.432v1.264h-2.432v4.592c0 .912.48 1.424 1.328 1.424.448 0 .88-.144 1.2-.4zm3.101 1.696a1.083 1.083 0 0 1-1.088-1.104c0-.64.496-1.088 1.088-1.088.576 0 1.056.448 1.056 1.088 0 .64-.48 1.104-1.056 1.104zm13.266.032c-3.392 0-5.92-2.416-5.92-5.728s2.528-5.728 5.936-5.728c1.728 0 3.232.592 4.256 1.744l-1.04 1.008c-.864-.912-1.92-1.328-3.152-1.328-2.528 0-4.4 1.824-4.4 4.304 0 2.48 1.872 4.304 4.4 4.304 1.232 0 2.288-.432 3.152-1.344l1.04 1.008c-1.024 1.152-2.528 1.76-4.272 1.76zm11.098-8.688c2.064 0 3.52 1.184 3.52 3.68V56h-1.536v-4.704c0-1.664-.832-2.48-2.288-2.48-1.632 0-2.688.976-2.688 2.816V56h-1.536V44.128h1.536v4.592c.64-.816 1.696-1.28 2.992-1.28zm14.314 4.368c0 .128-.016.32-.032.464h-6.88c.192 1.488 1.392 2.48 3.072 2.48.992 0 1.824-.336 2.448-1.024l.848.992c-.768.896-1.936 1.376-3.344 1.376-2.736 0-4.56-1.808-4.56-4.336 0-2.512 1.808-4.32 4.256-4.32 2.448 0 4.192 1.76 4.192 4.368zm-4.192-3.072c-1.472 0-2.56.992-2.72 2.432h5.44c-.16-1.424-1.232-2.432-2.72-2.432zm10.261 7.36c-2.608 0-4.48-1.808-4.48-4.336 0-2.528 1.872-4.32 4.48-4.32 1.52 0 2.784.624 3.456 1.808l-1.168.752c-.544-.832-1.376-1.216-2.304-1.216-1.664 0-2.912 1.168-2.912 2.976 0 1.84 1.248 2.992 2.912 2.992.928 0 1.76-.384 2.304-1.216l1.168.736c-.672 1.184-1.936 1.824-3.456 1.824zM190.371 56l-3.184-3.952-1.76 1.632V56h-1.536V44.128h1.536v7.616l4.624-4.224h1.856l-3.568 3.504 3.92 4.976h-1.888zm12.444-1.6.48 1.104c-.464.4-1.168.592-1.856.592-1.712 0-2.688-.944-2.688-2.656v-4.656h-1.44V47.52h1.44v-1.856h1.536v1.856h2.432v1.264h-2.432v4.592c0 .912.48 1.424 1.328 1.424.448 0 .88-.144 1.2-.4zm7.105-6.96c2.064 0 3.52 1.184 3.52 3.68V56h-1.536v-4.704c0-1.664-.832-2.48-2.288-2.48-1.632 0-2.688.976-2.688 2.816V56h-1.536V44.128h1.536v4.592c.64-.816 1.696-1.28 2.992-1.28zm14.314 4.368c0 .128-.016.32-.032.464h-6.88c.192 1.488 1.392 2.48 3.072 2.48.992 0 1.824-.336 2.448-1.024l.848.992c-.768.896-1.936 1.376-3.344 1.376-2.736 0-4.56-1.808-4.56-4.336 0-2.512 1.808-4.32 4.256-4.32 2.448 0 4.192 1.76 4.192 4.368zm-4.192-3.072c-1.472 0-2.56.992-2.72 2.432h5.44c-.16-1.424-1.232-2.432-2.72-2.432zm17.173-1.296c2.064 0 3.472 1.184 3.472 3.68V56h-1.536v-4.704c0-1.664-.8-2.48-2.192-2.48-1.536 0-2.544.976-2.544 2.816V56h-1.536v-4.704c0-1.664-.8-2.48-2.192-2.48-1.536 0-2.544.976-2.544 2.816V56h-1.536v-8.48h1.472v1.264c.608-.864 1.648-1.344 2.928-1.344 1.296 0 2.384.512 2.944 1.568.64-.96 1.824-1.568 3.264-1.568zm14.707 8.656c-2.544 0-4.416-1.808-4.416-4.336 0-2.528 1.872-4.32 4.416-4.32 2.544 0 4.4 1.792 4.4 4.32 0 2.528-1.856 4.336-4.4 4.336zm0-1.344c1.632 0 2.848-1.184 2.848-2.992s-1.216-2.976-2.848-2.976-2.864 1.168-2.864 2.976 1.232 2.992 2.864 2.992zm13.132-7.232h1.536V56h-1.456v-1.28c-.624.88-1.68 1.376-2.88 1.376-2.192 0-3.648-1.2-3.648-3.696v-4.88h1.536v4.704c0 1.664.832 2.496 2.288 2.496 1.6 0 2.624-.992 2.624-2.816V47.52zm8.988 6.88.48 1.104c-.464.4-1.168.592-1.856.592-1.712 0-2.688-.944-2.688-2.656v-4.656h-1.44V47.52h1.44v-1.856h1.536v1.856h2.432v1.264h-2.432v4.592c0 .912.48 1.424 1.328 1.424.448 0 .88-.144 1.2-.4zm2.657-1.936-.288-7.664h1.808l-.304 7.664h-1.216zm.624 3.632c-.608 0-1.056-.464-1.056-1.024 0-.576.448-1.024 1.056-1.024.592 0 1.024.448 1.024 1.024a1.01 1.01 0 0 1-1.024 1.024z" fill="#E3E3E3"/></svg>