<svg width="236" height="26" viewBox="0 0 236 26" fill="none" xmlns="http://www.w3.org/2000/svg">
<path d="M126.791 15.237C126.718 16.761 126.046 18.1988 124.914 19.252C123.783 20.3053 122.279 20.8929 120.716 20.8929C119.152 20.8929 117.648 20.3053 116.517 19.252C115.385 18.1988 114.713 16.761 114.64 15.237V0.0078125H109.317V15.237C109.514 18.0331 110.791 20.652 112.891 22.5647C114.991 24.4774 117.756 25.5412 120.629 25.5412C123.502 25.5412 126.268 24.4774 128.367 22.5647C130.467 20.652 131.745 18.0331 131.941 15.237V0.0078125H126.791V15.237Z" fill="white" fill-opacity="0.5"/>
<path d="M13.7755 4.9673C15.9276 4.95633 18.0063 5.72954 19.6046 7.13548L22.6656 3.04579C20.1531 1.05797 17.0104 -0.0160011 13.7755 0.00773287C10.2459 -0.111063 6.81247 1.14287 4.23055 3.49368C1.64862 5.8445 0.129699 9.09962 0.00792663 12.543C-0.113845 15.9863 1.17151 19.3358 3.58122 21.8546C5.99094 24.3734 9.32762 25.8552 12.8572 25.974H13.7755C17.0158 25.9766 20.157 24.8848 22.6656 22.884L19.6046 18.7814C18.0111 20.1964 15.9303 20.975 13.7755 20.9625C11.6013 21.0331 9.48734 20.2582 7.89875 18.8083C6.31016 17.3584 5.37705 15.3522 5.30469 13.2311C5.23234 11.11 6.02666 9.0477 7.51292 7.49795C8.99918 5.94819 11.0556 5.03789 13.2299 4.9673H13.7755Z" fill="white" fill-opacity="0.5"/>
<path d="M70.8955 17.4182L58.1061 0.0078125H52.8625V25.9741H58.1061V8.51178L70.8955 25.9741H76.139V0.0078125H70.8955V17.4052V17.4182Z" fill="white" fill-opacity="0.5"/>
<path d="M82.0215 0.0078125V4.94141H90.1263V25.9741H95.3699V4.96738H103.488V0.0078125H82.0215Z" fill="white" fill-opacity="0.5"/>
<path d="M221.601 0.0078125V4.94141H224.462V25.9741H229.705V0.0078125H221.601Z" fill="white" fill-opacity="0.5"/>
<path d="M29.6123 0.0078125V25.9741H47.9514V20.9626H34.8558V15.4318H45.3562V10.4852H34.8558V4.96738H47.9514V0.0078125H29.6123Z" fill="white" fill-opacity="0.5"/>
<path d="M149.828 12.4584H143.173V4.96708H149.828C150.347 4.9259 150.87 4.98816 151.364 5.15009C151.858 5.31202 152.313 5.57023 152.702 5.90906C153.091 6.24788 153.405 6.66023 153.625 7.12108C153.845 7.58192 153.967 8.08164 153.983 8.58989C154 9.09814 153.91 9.6043 153.719 10.0777C153.529 10.551 153.242 10.9816 152.876 11.3434C152.509 11.7052 152.072 11.9906 151.589 12.1823C151.106 12.3739 150.588 12.4679 150.067 12.4584H149.828ZM159.05 8.71921C159.031 7.55638 158.778 6.4086 158.304 5.34143C157.83 4.27425 157.145 3.3086 156.289 2.49962C155.432 1.69063 154.421 1.05416 153.312 0.626563C152.204 0.198964 151.02 -0.0113887 149.828 0.0075179H137.957V25.9738H143.28V17.4049H146.634L152.822 25.9738H159.05L152.516 17.0804C154.378 16.5681 156.02 15.4822 157.198 13.9847C158.376 12.4872 159.025 10.6584 159.05 8.77114" fill="white" fill-opacity="0.5"/>
<path d="M182.021 0.0078125L174.382 10.4852L166.623 0.0078125H160.381L171.72 15.4058V25.9741H177.044V15.4058L188.263 0.0078125H182.021Z" fill="white" fill-opacity="0.5"/>
<mask id="mask0_1_342" style="mask-type:luminance" maskUnits="userSpaceOnUse" x="0" y="0" width="236" height="26">
<path d="M0.0410156 0.0204468H236V25.9997H0.0410156V0.0204468Z" fill="white"/>
</mask>
<g mask="url(#mask0_1_342)">
<path d="M214.92 12.9906L215.053 12.8088C215.769 11.748 216.223 10.5389 216.377 9.27745C216.531 8.01597 216.382 6.73676 215.942 5.54123C215.501 4.3457 214.781 3.26672 213.839 2.38981C212.897 1.5129 211.758 0.862183 210.513 0.489231C209.268 0.11628 207.951 0.0313506 206.667 0.241177C205.383 0.451003 204.166 0.949815 203.114 1.69807C202.061 2.44633 201.202 3.42346 200.604 4.55201C200.006 5.68056 199.685 6.92949 199.668 8.19981V8.51141H204.739V8.19981C204.739 7.33898 205.089 6.5134 205.713 5.90469C206.337 5.29599 207.183 4.95402 208.066 4.95402C208.487 4.93839 208.907 5.00393 209.303 5.14689C209.698 5.28985 210.06 5.50743 210.369 5.78718C210.678 6.06694 210.928 6.40338 211.103 6.77726C211.279 7.15114 211.377 7.55513 211.393 7.96612V8.19981C211.225 9.10341 210.862 9.96189 210.328 10.7185L199.575 25.9737H216.969V20.9622H209.25L214.933 12.9906H214.92Z" fill="white" fill-opacity="0.5"/>
<path d="M233.232 23.7406H233.698C233.854 23.757 234.013 23.7252 234.15 23.6498C234.191 23.6169 234.223 23.575 234.244 23.5276C234.265 23.4802 234.273 23.4286 234.27 23.3771C234.268 23.3112 234.245 23.2475 234.203 23.1954C234.187 23.1644 234.164 23.1369 234.137 23.1146C234.109 23.0923 234.078 23.0756 234.044 23.0655C233.92 23.0527 233.795 23.0527 233.671 23.0655H233.232V23.7666V23.7406ZM232.846 25.039V22.7409H233.658C233.86 22.7082 234.067 22.7082 234.27 22.7409C234.391 22.779 234.494 22.8571 234.563 22.9617C234.633 23.0608 234.67 23.1787 234.669 23.2992C234.668 23.4644 234.601 23.6227 234.483 23.7406C234.347 23.8615 234.174 23.9346 233.99 23.9484C234.068 23.9744 234.14 24.014 234.203 24.0652C234.323 24.208 234.443 24.3638 234.549 24.5196L234.829 24.974H234.376L234.163 24.6105C234.058 24.4149 233.923 24.2355 233.764 24.0782C233.676 24.0149 233.566 23.987 233.458 24.0003H233.232V24.974L232.846 25.039ZM233.817 22.0788C233.5 22.0779 233.188 22.1585 232.912 22.3125C232.628 22.4623 232.393 22.6873 232.234 22.9617C232.071 23.2339 231.984 23.5426 231.981 23.8575C231.983 24.1685 232.07 24.4734 232.234 24.7403C232.385 25.0237 232.622 25.2549 232.912 25.4025C233.186 25.5614 233.499 25.6452 233.817 25.6452C234.136 25.6452 234.449 25.5614 234.722 25.4025C235.01 25.2516 235.246 25.0213 235.401 24.7403C235.561 24.4724 235.643 24.1674 235.641 23.8575C235.642 23.5436 235.559 23.2349 235.401 22.9617C235.241 22.6836 235 22.4578 234.709 22.3125C234.439 22.1566 234.131 22.0758 233.817 22.0788ZM233.817 21.7153C234.195 21.7258 234.564 21.8237 234.895 22.0009C235.24 22.181 235.522 22.4566 235.707 22.7929C235.903 23.1152 236.006 23.4829 236.006 23.8575C236.006 24.2321 235.903 24.5998 235.707 24.9221C235.524 25.2548 235.247 25.5295 234.909 25.7141C234.576 25.8997 234.2 25.9974 233.817 25.9974C233.434 25.9974 233.058 25.8997 232.726 25.7141C232.381 25.534 232.099 25.2584 231.914 24.9221C231.719 24.5998 231.615 24.2321 231.615 23.8575C231.615 23.4829 231.719 23.1152 231.914 22.7929C232.095 22.4542 232.379 22.1778 232.726 22.0009C233.057 21.8237 233.427 21.7258 233.804 21.7153" fill="white" fill-opacity="0.5"/>
</g>
</svg>
