<svg width="191" height="38" viewBox="0 0 191 38" fill="none" xmlns="http://www.w3.org/2000/svg">
<path fill-rule="evenodd" clip-rule="evenodd" d="M178.184 19.6944L177.807 20.0731H164.236V20.4518C164.236 23.7342 166.372 25.7542 169.513 25.7542C172.026 25.7542 173.283 24.9967 174.539 23.8605L177.304 26.5116C175.293 28.4053 173.283 29.5415 169.388 29.5415C162.728 29.5415 159.461 25.8804 159.461 18.6844C159.461 11.9934 163.105 7.82724 168.885 7.82724C174.539 7.82724 178.309 11.8671 178.309 17.9269L178.184 19.6944ZM173.409 17.1694V16.7907C173.409 15.7807 173.283 15.1495 172.906 14.2658C172.152 12.6246 170.644 11.7409 168.759 11.7409C166.874 11.7409 165.366 12.6246 164.613 14.2658C164.236 15.1495 164.11 15.7807 164.11 16.7907V17.1694H173.409ZM188.613 12.8771H191.001V8.20598H188.613C184.215 8.20598 180.571 11.7409 180.571 16.0332V29.4153H183.084C184.215 29.4153 185.22 28.4053 185.22 27.2691V26.5116V16.0332C185.346 14.2658 186.854 12.8771 188.613 12.8771ZM93.7417 29.4153H94.2443H96.7574V2.14618C96.7574 1.00997 95.8778 0.126246 94.7469 0H91.7311V12.3721H81.5529V2.27243C81.5529 1.13621 80.6733 0.252492 79.5424 0.126246H76.4009V27.3953C76.4009 28.5316 77.4062 29.4153 78.5371 29.4153H79.0397H81.5529V16.7907H91.7311V27.3953C91.7311 28.5316 92.6107 29.4153 93.7417 29.4153ZM154.309 29.5415H159.838L151.418 16.7907L159.084 8.33223H153.429L145.387 17.8007V2.27243C145.387 1.13621 144.507 0.252492 143.376 0.126246H140.612V27.3953C140.612 28.5316 141.492 29.4153 142.748 29.4153H145.387V23.103L148.403 19.6944L154.309 29.5415ZM135.711 10.6047C137.722 12.7508 138.099 15.2757 138.099 18.9369C138.099 22.598 137.722 25.1229 135.711 27.2691C134.58 28.4053 132.444 29.794 129.051 29.794C125.659 29.794 123.522 28.4053 122.392 27.2691C120.381 25.2492 120.004 22.598 120.004 18.9369C120.004 15.2757 120.381 12.7508 122.392 10.6047C123.522 9.46844 125.533 8.07973 129.051 8.07973C132.57 7.95349 134.58 9.34219 135.711 10.6047ZM132.067 24.4917C133.324 23.2292 133.449 21.0831 133.449 18.8106C133.449 16.5382 133.324 14.5183 132.067 13.1296C131.313 12.3721 130.308 11.9934 129.177 11.9934C128.046 11.9934 127.041 12.3721 126.287 13.1296C125.03 14.392 124.905 16.5382 124.905 18.8106C124.905 21.0831 125.03 23.2292 126.287 24.4917C127.041 25.2492 127.921 25.6279 129.177 25.6279C130.308 25.6279 131.313 25.2492 132.067 24.4917ZM117.365 18.8106C117.365 22.4718 116.988 24.9967 114.978 27.1429C114.098 28.1528 111.962 29.6678 108.318 29.6678C104.925 29.6678 102.789 28.2791 101.658 27.1429C99.6476 25.1229 99.2706 22.4718 99.2706 18.8106C99.2706 15.1495 99.6476 12.6246 101.658 10.4784C102.789 9.34219 104.925 7.95349 108.318 7.95349C111.962 7.95349 114.098 9.59468 114.978 10.4784C116.988 12.6246 117.365 15.1495 117.365 18.8106ZM111.208 24.4917C112.465 23.2292 112.59 21.0831 112.59 18.8106C112.59 16.5382 112.465 14.5183 111.208 13.1296C110.454 12.3721 109.449 11.9934 108.318 11.9934C107.061 11.9934 106.182 12.3721 105.428 13.1296C104.171 14.392 104.046 16.5382 104.046 18.8106C104.046 21.0831 104.171 23.2292 105.428 24.4917C106.182 25.2492 107.061 25.6279 108.318 25.6279C109.449 25.6279 110.454 25.2492 111.208 24.4917ZM62.076 2.01993C61.9503 1.00997 61.0707 0.126246 59.9398 0.126246H56.924V27.9003C56.924 31.309 55.1648 33.3289 51.8977 33.4552H50.1385V38H51.8977C56.7983 37.8738 62.076 34.8439 62.076 28.2791V2.01993ZM42.2221 29.5415H41.7194C40.5885 29.5415 39.7089 28.6578 39.5833 27.6478V0.126246H42.7247C43.8556 0.126246 44.7352 1.13621 44.7352 2.27243V25.1229H53.0286V27.5216C53.0286 28.6578 52.149 29.5415 51.0181 29.6678H42.2221V29.5415Z" fill="white" fill-opacity="0.5"/>
<path fill-rule="evenodd" clip-rule="evenodd" d="M0.00113975 0.126465V27.3956C0.00113975 27.3956 -0.124518 29.668 2.26298 29.668C4.65047 29.668 9.67677 29.668 9.67677 29.668V0.126465H0.00113975Z" fill="white" fill-opacity="0.15"/>
<path fill-rule="evenodd" clip-rule="evenodd" d="M9.67676 29.668H19.3524V0.126465H9.67676V29.668Z" fill="white" fill-opacity="0.25"/>
<path fill-rule="evenodd" clip-rule="evenodd" d="M19.3527 29.668H28.9027V0.126465H19.2271L19.3527 29.668Z" fill="white" fill-opacity="0.5"/>
</svg>
