<svg width="167" height="60" viewBox="0 0 167 60" fill="none" xmlns="http://www.w3.org/2000/svg">
    <path d="M1.00049 16.8921C3.88671 16.8921 6.78347 16.8921 9.66969 16.8921C10.0173 16.8921 10.1753 16.9661 10.3017 17.3253C12.2715 22.9681 14.2729 28.6109 16.2638 34.2538C16.3059 34.3806 16.3691 34.5074 16.4639 34.7504C16.6956 34.1164 16.8958 33.588 17.0854 33.0597C18.9393 27.8396 20.7932 22.6089 22.6261 17.3887C22.7525 17.0295 22.9105 16.8921 23.3213 16.8921C26.0179 16.9132 28.7251 16.9027 31.4217 16.9027H31.9273V44.2713H25.8705V23.5705C25.8705 23.5705 25.7967 23.5493 25.7546 23.5493C25.5229 24.2151 25.2911 24.8808 25.0594 25.5465C22.9632 31.6648 20.867 37.7937 18.7813 43.912C18.676 44.229 18.518 44.303 18.202 44.303C16.9695 44.2819 15.7371 44.2819 14.5046 44.303C14.1044 44.303 13.9464 44.1868 13.82 43.8064C11.65 37.1808 9.46955 30.5553 7.27855 23.9297C7.23642 23.7924 7.18375 23.6444 7.05735 23.5176V44.2819H1.00049V16.8921Z" fill="white" fill-opacity="0.5"/>
    <path d="M154.687 15.0005C154.708 15.2013 154.75 15.402 154.75 15.6028C154.75 19.4915 154.75 23.3802 154.75 27.2583V27.7761C154.803 27.7761 154.845 27.7761 154.855 27.7655C155.856 26.0008 157.447 25.2083 159.395 25.0392C160.554 24.9441 161.702 25.0181 162.808 25.3562C164.957 26.0219 166.126 27.5753 166.59 29.6887C166.811 30.6714 166.959 31.6859 166.969 32.6792C167.011 36.515 166.99 40.3614 166.99 44.2395H161.186V43.6689C161.186 40.6784 161.207 37.6985 161.176 34.708C161.176 33.9049 161.091 33.1018 160.933 32.3199C160.649 30.9884 159.848 30.2804 158.647 30.1536C157.046 29.9846 155.814 30.5763 155.245 31.8127C154.834 32.6897 154.75 33.6302 154.75 34.5812C154.75 37.6034 154.75 40.615 154.75 43.6372V44.2395H148.904V15.0005C150.831 15.0005 152.759 15.0005 154.687 15.0005Z" fill="white" fill-opacity="0.5"/>
    <path d="M85.2273 28.0617C85.2273 28.2731 85.2273 28.4527 85.2273 28.6218C85.2273 33.0282 85.2273 37.4347 85.2379 41.8411C85.2379 42.2533 85.1009 42.4435 84.7428 42.6125C82.0988 43.8806 79.318 44.6097 76.4001 44.8633C73.6719 45.1064 70.9648 45.0747 68.363 44.1659C63.2015 42.3801 60.1151 38.7661 59.1881 33.3769C58.6614 30.3019 58.9143 27.2692 60.1678 24.3738C61.7478 20.7176 64.4866 18.2555 68.2576 17.0614C72.8082 15.6243 77.3376 15.8568 81.7407 17.7483C82.8151 18.2132 83.7737 18.8789 84.6585 19.7243C83.2259 21.2882 81.8144 22.831 80.3819 24.3949C79.2442 23.2009 77.9065 22.3872 76.3159 22.0702C73.398 21.489 70.6172 21.7109 68.2155 23.687C66.5722 25.0395 65.6979 26.8465 65.3819 28.9282C65.0343 31.2107 65.3187 33.4086 66.488 35.4164C67.9205 37.8891 70.1642 39.1254 72.9662 39.3368C75.0413 39.4953 77.0427 39.1466 78.9493 38.2589C79.2653 38.111 79.3917 37.9419 79.3812 37.5826C79.3601 36.2934 79.3812 34.9937 79.3812 33.6306C79.181 33.6306 79.0125 33.6306 78.8439 33.6306C77.5167 33.6306 76.1895 33.6306 74.8622 33.6306C74.5462 33.6306 74.4514 33.5354 74.4619 33.2184C74.4725 31.6122 74.4619 29.9955 74.4619 28.3893C74.4619 28.1251 74.5041 27.9772 74.8201 27.9772C78.2119 27.9772 81.6038 27.9772 85.0061 27.9772C85.0693 27.9772 85.122 27.9983 85.2379 28.0194L85.2273 28.0617Z" fill="white" fill-opacity="0.5"/>
    <path d="M124.918 44.2928C123.233 44.2928 121.59 44.2928 119.946 44.2928C119.841 44.2928 119.725 44.2823 119.578 44.2717V42.0632C119.493 42.0949 119.441 42.0949 119.42 42.1266C118.156 43.8702 116.354 44.5887 114.29 44.7367C112.32 44.8846 110.445 44.5147 108.854 43.2467C107.253 41.9575 106.695 40.2351 106.885 38.2379C107.169 35.3425 109.065 33.9054 111.625 33.1129C113.279 32.5951 114.985 32.426 116.702 32.3626C117.629 32.3309 118.556 32.3626 119.536 32.3626C119.567 31.4539 119.272 30.7459 118.714 30.1541C117.671 29.0446 116.333 28.8649 114.922 29.0763C113.531 29.2876 112.383 29.9745 111.414 30.9889C111.34 31.0629 111.298 31.1791 111.277 31.2003C110.161 30.133 109.097 29.1291 108.012 28.083C108.749 27.3539 109.539 26.8255 110.392 26.3923C112.552 25.2933 114.859 24.8812 117.26 25.0502C118.198 25.1136 119.146 25.2404 120.052 25.4941C122.59 26.1915 123.991 27.9984 124.518 30.4923C124.75 31.6018 124.887 32.7431 124.908 33.8632C124.96 37.2235 124.929 40.5944 124.929 43.9547C124.929 44.0498 124.929 44.1343 124.918 44.2928ZM119.536 35.9977C118.356 36.0611 117.218 36.04 116.102 36.1879C115.259 36.3041 114.416 36.5683 113.626 36.9065C112.826 37.2552 112.415 37.9632 112.478 38.8614C112.541 39.8124 113.184 40.3408 114.016 40.5732C115.691 41.0488 117.229 40.7106 118.577 39.5905C119.114 39.1467 119.441 38.5338 119.525 37.8364C119.588 37.2658 119.536 36.674 119.536 35.9871V35.9977Z" fill="white" fill-opacity="0.5"/>
    <path d="M142.92 39.3368C142.92 40.9219 142.92 42.433 142.91 43.9441C142.91 44.0603 142.71 44.2505 142.573 44.2822C141.793 44.4513 141.003 44.6309 140.213 44.7049C138.665 44.8528 137.127 44.8 135.631 44.3033C133.282 43.5214 131.976 41.7355 131.976 39.2523C131.976 36.4203 131.976 33.5989 131.976 30.7669C131.976 30.5767 131.976 30.3971 131.976 30.1752H128.31V25.4729H131.965V19.9463H137.811V25.4517H142.899V30.1435H137.854C137.832 30.2914 137.811 30.3865 137.811 30.4922C137.811 32.6373 137.811 34.7824 137.811 36.9381C137.811 37.2974 137.854 37.6672 137.917 38.0159C138.127 39.1149 138.791 39.7172 139.981 39.8123C140.961 39.8969 141.93 39.844 142.92 39.3157V39.3368Z" fill="white" fill-opacity="0.5"/>
    <path d="M97.1415 44.2708H91.3164V25.4826C91.4639 25.472 91.5798 25.4509 91.7062 25.4509C93.3599 25.4509 95.0243 25.4615 96.678 25.4509C97.0678 25.4509 97.1626 25.5671 97.1521 25.937C97.131 26.7189 97.1521 27.5115 97.1521 28.4202C97.2785 28.2406 97.3522 28.1666 97.3943 28.0821C98.711 25.789 100.712 24.8169 103.325 25.0282C104.557 25.1233 104.557 25.1127 104.557 26.3174V30.4174C103.567 30.3329 102.608 30.1955 101.639 30.1744C101.102 30.1638 100.533 30.2589 100.007 30.4068C98.3845 30.8507 97.4365 32.0764 97.2679 33.9785C97.1731 34.9929 97.1521 36.0285 97.1521 37.0535C97.131 39.2832 97.1521 41.5022 97.1521 43.7319C97.1521 43.901 97.1521 44.07 97.1521 44.2602L97.1415 44.2708Z" fill="white" fill-opacity="0.5"/>
    <path d="M54.6694 27.9022C53.8583 28.5151 53.1315 29.0646 52.4468 29.593C51.9201 29.1069 51.4777 28.5785 50.93 28.1876C48.0964 26.1587 43.7776 26.9935 41.7446 29.9417C39.7959 32.7737 39.9749 37.2541 42.1133 39.9275C44.4096 42.7912 49.7923 43.383 52.2572 39.8747C52.2783 39.843 52.3204 39.8113 52.3836 39.7585C53.1104 40.308 53.8267 40.8574 54.5851 41.4386C53.8372 42.358 52.9629 43.066 51.9728 43.6154C47.0746 46.3523 38.7425 44.4819 37.5417 36.5778C37.0993 33.6824 37.5311 30.9456 39.2481 28.5046C40.923 26.1375 43.2825 24.9752 46.1266 24.6687C48.5599 24.4045 50.8035 24.8801 52.8049 26.3066C53.4475 26.7716 54.0163 27.3422 54.6483 27.9022H54.6694Z" fill="white" fill-opacity="0.5"/>
</svg>
