<svg width="21" height="20" viewBox="0 0 21 20" fill="none" xmlns="http://www.w3.org/2000/svg">
<path d="M14.6667 1.6665H6.33341C4.03223 1.6665 2.16675 3.53198 2.16675 5.83317V14.1665C2.16675 16.4677 4.03223 18.3332 6.33341 18.3332H14.6667C16.9679 18.3332 18.8334 16.4677 18.8334 14.1665V5.83317C18.8334 3.53198 16.9679 1.6665 14.6667 1.6665Z" stroke="white" stroke-width="1.5" stroke-linecap="round" stroke-linejoin="round"/>
<path d="M13.8335 9.47476C13.9363 10.1683 13.8179 10.8766 13.495 11.4989C13.172 12.1213 12.6611 12.6259 12.0349 12.9412C11.4086 13.2564 10.6989 13.3661 10.0067 13.2547C9.31443 13.1433 8.67496 12.8165 8.1792 12.3207C7.68343 11.825 7.35661 11.1855 7.24522 10.4933C7.13383 9.80106 7.24355 9.09134 7.55877 8.46507C7.87399 7.83881 8.37865 7.32788 9.00098 7.00496C9.62332 6.68205 10.3316 6.56359 11.0252 6.66643C11.7326 6.77133 12.3875 7.10098 12.8932 7.60669C13.3989 8.11239 13.7286 8.76733 13.8335 9.47476Z" stroke="white" stroke-width="1.5" stroke-linecap="round" stroke-linejoin="round"/>
<path d="M15.0835 5.4165H15.0927" stroke="white" stroke-width="2" stroke-linecap="round" stroke-linejoin="round"/>
</svg>
