<svg width="19" height="20" viewBox="0 0 19 20" fill="none" xmlns="http://www.w3.org/2000/svg">
<g clip-path="url(#clip0_145_13)">
<path d="M4.52911 17.5006H0.797321V5.81699H4.52911V17.5006ZM2.66121 4.22324C1.4679 4.22324 0.5 3.2623 0.5 2.10215C0.5 1.54488 0.727698 1.01044 1.133 0.616396C1.53831 0.222349 2.08802 0.000976562 2.66121 0.000976562C3.23439 0.000976562 3.7841 0.222349 4.18941 0.616396C4.59471 1.01044 4.82241 1.54488 4.82241 2.10215C4.82241 3.2623 3.85411 4.22324 2.66121 4.22324ZM18.496 17.5006H14.7722V11.8131C14.7722 10.4576 14.7441 8.71934 12.832 8.71934C10.8918 8.71934 10.5945 10.192 10.5945 11.7154V17.5006H6.8667V5.81699H10.4458V7.41074H10.498C10.9963 6.49277 12.2133 5.52402 14.0289 5.52402C17.8057 5.52402 18.5 7.94199 18.5 11.0826V17.5006H18.496Z" fill="white"/>
</g>
<defs>
<clipPath id="clip0_145_13">
<rect width="18" height="20" fill="white" transform="translate(0.5)"/>
</clipPath>
</defs>
</svg>
