<svg width="30" height="24" viewBox="0 0 30 24" fill="none" xmlns="http://www.w3.org/2000/svg">
<path d="M15 23.25H1.875C0.84 23.25 0 22.41 0 21.375C0 20.34 0.84 19.5 1.875 19.5H15C16.035 19.5 16.875 20.34 16.875 21.375C16.875 22.41 16.035 23.25 15 23.25Z" fill="white"/>
<path d="M28.125 4.53564H15C13.965 4.53564 13.125 3.69564 13.125 2.66064C13.125 1.62564 13.965 0.785645 15 0.785645H28.125C29.16 0.785645 30 1.62564 30 2.66064C30 3.69752 29.16 4.53564 28.125 4.53564Z" fill="white"/>
<path d="M28.125 13.875H1.875C0.84 13.875 0 13.035 0 12C0 10.965 0.84 10.125 1.875 10.125H28.125C29.16 10.125 30 10.965 30 12C30 13.035 29.16 13.875 28.125 13.875Z" fill="white"/>
</svg>
