<svg width="17" height="18" viewBox="0 0 17 18" fill="none" xmlns="http://www.w3.org/2000/svg">
<path d="M7.57616 1.66608C7.87551 0.744769 9.17892 0.744771 9.47827 1.66608L10.7724 5.64886C10.9062 6.06088 11.2902 6.33984 11.7234 6.33984H15.9112C16.8799 6.33984 17.2827 7.57946 16.4989 8.14886L13.111 10.6104C12.7605 10.865 12.6138 11.3164 12.7477 11.7284L14.0418 15.7112C14.3411 16.6325 13.2867 17.3986 12.503 16.8292L9.115 14.3677C8.76451 14.1131 8.28992 14.1131 7.93943 14.3677L4.55147 16.8292C3.76776 17.3986 2.71328 16.6325 3.01263 15.7112L4.30672 11.7284C4.44059 11.3164 4.29393 10.865 3.94344 10.6104L0.555488 8.14886C-0.228225 7.57946 0.174552 6.33984 1.14328 6.33984H5.33102C5.76424 6.33984 6.1482 6.06088 6.28207 5.64886L7.57616 1.66608Z" fill="#FF7F5D"/>
</svg>
