<svg width="90" height="90" viewBox="0 0 90 90" fill="none" xmlns="http://www.w3.org/2000/svg">
<rect width="90" height="90" rx="45" fill="#FF7F5D"/>
<path d="M40.5 47.25C41.4663 48.5418 42.6991 49.6107 44.1147 50.3842C45.5304 51.1576 47.0959 51.6176 48.705 51.7328C50.314 51.848 51.9291 51.6159 53.4405 51.0521C54.952 50.4882 56.3245 49.606 57.465 48.465L64.215 41.715C66.2643 39.5933 67.3982 36.7515 67.3726 33.8018C67.347 30.8521 66.1638 28.0304 64.078 25.9446C61.9921 23.8587 59.1705 22.6756 56.2208 22.65C53.271 22.6243 50.4293 23.7583 48.3075 25.8075L44.4375 29.655" stroke="#002429" stroke-width="4.5" stroke-linecap="round" stroke-linejoin="round"/>
<path d="M49.5 42.75C48.5337 41.4582 47.3009 40.3894 45.8852 39.6159C44.4695 38.8424 42.9041 38.3825 41.295 38.2673C39.6859 38.152 38.0709 38.3842 36.5594 38.948C35.048 39.5118 33.6755 40.3941 32.535 41.535L25.785 48.285C23.7357 50.4068 22.6017 53.2486 22.6274 56.1983C22.653 59.148 23.8362 61.9696 25.922 64.0555C28.0078 66.1413 30.8295 67.3245 33.7792 67.3501C36.7289 67.3757 39.5707 66.2418 41.6925 64.1925L45.54 60.345" stroke="#002429" stroke-width="4.5" stroke-linecap="round" stroke-linejoin="round"/>
</svg>
