<svg width="207" height="30" viewBox="0 0 207 30" fill="none" xmlns="http://www.w3.org/2000/svg">
<path fill-rule="evenodd" clip-rule="evenodd" d="M7.5 0V7.5H0L2.86102e-07 30H15V22.5H18.75C24.9632 22.5 30 17.4632 30 11.25C30 5.0368 24.9632 5.33486e-07 18.75 0H7.5ZM15 22.5H7.5V7.5L18.75 7.5C20.8211 7.5 22.5 9.17893 22.5 11.25C22.5 13.3211 20.8211 15 18.75 15H15V22.5Z" fill="#FF7F5D"/>
<path d="M39.9 21.1221V6.47093H43.2991V18.3593H50.6637V21.1221H39.9Z" fill="white"/>
<path d="M53.9686 8.29186C52.7517 8.29186 51.9334 7.49651 51.9334 6.47093C51.9334 5.44535 52.7517 4.65 53.9686 4.65C55.1856 4.65 56.0039 5.40349 56.0039 6.40814C56.0039 7.49651 55.1856 8.29186 53.9686 8.29186ZM52.3321 21.1221V9.86163H55.6052V21.1221H52.3321Z" fill="white"/>
<path d="M62.4407 21.2895C60.5313 21.2895 58.601 20.7663 57.5519 20.0756L58.643 17.7314C59.6501 18.3802 61.1818 18.8198 62.5666 18.8198C64.0773 18.8198 64.6438 18.4221 64.6438 17.7942C64.6438 15.9523 57.8247 17.836 57.8247 13.336C57.8247 11.2012 59.755 9.69419 63.0492 9.69419C64.6018 9.69419 66.3223 10.05 67.3924 10.6779L66.3014 13.0012C65.1893 12.3733 64.0773 12.164 63.0492 12.164C61.5804 12.164 60.951 12.6244 60.951 13.2105C60.951 15.136 67.7701 13.2733 67.7701 17.7105C67.7701 19.8035 65.8188 21.2895 62.4407 21.2895Z" fill="white"/>
<path d="M76.189 18.2756L77.0703 20.5779C76.3989 21.0593 75.4127 21.2895 74.4056 21.2895C71.7409 21.2895 70.1882 19.9291 70.1882 17.25V12.6244H68.4467V10.1128H70.1882V7.37093H73.4614V10.1128H76.273V12.6244H73.4614V17.2081C73.4614 18.1709 73.9859 18.6942 74.8672 18.6942C75.3498 18.6942 75.8323 18.5477 76.189 18.2756Z" fill="white"/>
<path d="M80.5442 8.29186C79.3273 8.29186 78.509 7.49651 78.509 6.47093C78.509 5.44535 79.3273 4.65 80.5442 4.65C81.7612 4.65 82.5795 5.40349 82.5795 6.40814C82.5795 7.49651 81.7612 8.29186 80.5442 8.29186ZM78.9077 21.1221V9.86163H82.1808V21.1221H78.9077Z" fill="white"/>
<path d="M92.0797 9.69419C94.7443 9.69419 96.7586 11.243 96.7586 14.6756V21.1221H93.4854V15.1779C93.4854 13.357 92.6462 12.5198 91.1984 12.5198C89.6248 12.5198 88.4918 13.4826 88.4918 15.5547V21.1221H85.2186V9.86163H88.3449V11.1802C89.2261 10.2174 90.548 9.69419 92.0797 9.69419Z" fill="white"/>
<path d="M108.388 9.86163H111.493V19.2384C111.493 23.4244 109.227 25.35 105.157 25.35C103.017 25.35 100.94 24.8267 99.6177 23.8012L100.919 21.457C101.884 22.2314 103.457 22.7337 104.905 22.7337C107.213 22.7337 108.22 21.6872 108.22 19.657V19.1756C107.36 20.1174 106.122 20.5779 104.653 20.5779C101.527 20.5779 99.0092 18.4221 99.0092 15.136C99.0092 11.85 101.527 9.69419 104.653 9.69419C106.227 9.69419 107.528 10.2174 108.388 11.3058V9.86163ZM105.304 17.8988C107.024 17.8988 108.262 16.7895 108.262 15.136C108.262 13.4826 107.024 12.3733 105.304 12.3733C103.583 12.3733 102.324 13.4826 102.324 15.136C102.324 16.7895 103.583 17.8988 105.304 17.8988Z" fill="white"/>
<path d="M121.128 6.47093C125.052 6.47093 127.507 8.50116 127.507 11.7872C127.507 15.0523 125.052 17.0826 121.128 17.0826H118.17V21.1221H114.771V6.47093H121.128ZM120.939 14.3198C123.017 14.3198 124.066 13.3779 124.066 11.7872C124.066 10.1756 123.017 9.23372 120.939 9.23372H118.17V14.3198H120.939Z" fill="white"/>
<path d="M134.153 9.69419C137.594 9.69419 139.587 11.2849 139.587 14.6965V21.1221H136.524V19.7198C135.916 20.7453 134.741 21.2895 133.083 21.2895C130.439 21.2895 128.866 19.8244 128.866 17.8779C128.866 15.8895 130.271 14.5081 133.712 14.5081H136.314C136.314 13.1058 135.475 12.2895 133.712 12.2895C132.517 12.2895 131.279 12.6872 130.46 13.336L129.285 11.0547C130.523 10.1756 132.349 9.69419 134.153 9.69419ZM133.901 19.0919C134.992 19.0919 135.937 18.5895 136.314 17.564V16.4128H134.069C132.538 16.4128 132.055 16.9779 132.055 17.7314C132.055 18.5477 132.747 19.0919 133.901 19.0919Z" fill="white"/>
<path d="M145.676 11.3477C146.473 10.2593 147.816 9.69419 149.558 9.69419V12.7081C149.285 12.6872 149.075 12.6663 148.823 12.6663C147.019 12.6663 145.823 13.65 145.823 15.8058V21.1221H142.55V9.86163H145.676V11.3477Z" fill="white"/>
<path d="M158.293 18.2756L159.174 20.5779C158.503 21.0593 157.516 21.2895 156.509 21.2895C153.845 21.2895 152.292 19.9291 152.292 17.25V12.6244H150.55V10.1128H152.292V7.37093H155.565V10.1128H158.377V12.6244H155.565V17.2081C155.565 18.1709 156.09 18.6942 156.971 18.6942C157.453 18.6942 157.936 18.5477 158.293 18.2756Z" fill="white"/>
<path d="M167.872 9.69419C170.537 9.69419 172.551 11.243 172.551 14.6756V21.1221H169.278V15.1779C169.278 13.357 168.439 12.5198 166.991 12.5198C165.417 12.5198 164.284 13.4826 164.284 15.5547V21.1221H161.011V9.86163H164.138V11.1802C165.019 10.2174 166.341 9.69419 167.872 9.69419Z" fill="white"/>
<path d="M186.699 15.5337C186.699 15.7849 186.657 16.1407 186.636 16.4128H178.096C178.411 17.8151 179.607 18.6733 181.327 18.6733C182.523 18.6733 183.383 18.3174 184.16 17.5849L185.901 19.4686C184.852 20.6616 183.279 21.2895 181.243 21.2895C177.341 21.2895 174.802 18.8407 174.802 15.4919C174.802 12.1221 177.383 9.69419 180.824 9.69419C184.139 9.69419 186.699 11.9128 186.699 15.5337ZM180.845 12.164C179.355 12.164 178.285 13.064 178.054 14.5081H183.614C183.383 13.0849 182.313 12.164 180.845 12.164Z" fill="white"/>
<path d="M192.004 11.3477C192.801 10.2593 194.144 9.69419 195.886 9.69419V12.7081C195.613 12.6872 195.403 12.6663 195.151 12.6663C193.347 12.6663 192.151 13.65 192.151 15.8058V21.1221H188.878V9.86163H192.004V11.3477Z" fill="white"/>
<path d="M201.671 21.2895C199.761 21.2895 197.831 20.7663 196.782 20.0756L197.873 17.7314C198.88 18.3802 200.412 18.8198 201.797 18.8198C203.307 18.8198 203.874 18.4221 203.874 17.7942C203.874 15.9523 197.055 17.836 197.055 13.336C197.055 11.2012 198.985 9.69419 202.279 9.69419C203.832 9.69419 205.552 10.05 206.622 10.6779L205.531 13.0012C204.419 12.3733 203.307 12.164 202.279 12.164C200.81 12.164 200.181 12.6244 200.181 13.2105C200.181 15.136 207 13.2733 207 17.7105C207 19.8035 205.049 21.2895 201.671 21.2895Z" fill="white"/>
</svg>
