<svg width="300" height="80" viewBox="0 0 300 80" fill="none" xmlns="http://www.w3.org/2000/svg">
<rect x="0.5" y="0.5" width="299" height="79" rx="7.5" fill="#002429"/>
<rect x="0.5" y="0.5" width="299" height="79" rx="7.5" stroke="#05343B"/>
<path opacity="0.5" d="M35.984 24.8H37.504L33.76 36H32.08L29.024 27.056L25.968 36H24.256L20.512 24.8H22.16L25.184 33.904L28.336 24.8H29.808L32.896 33.952L35.984 24.8ZM46.5006 31.808C46.5006 31.936 46.4846 32.128 46.4686 32.272H39.5886C39.7806 33.76 40.9806 34.752 42.6606 34.752C43.6526 34.752 44.4846 34.416 45.1086 33.728L45.9566 34.72C45.1886 35.616 44.0206 36.096 42.6126 36.096C39.8766 36.096 38.0526 34.288 38.0526 31.76C38.0526 29.248 39.8606 27.44 42.3086 27.44C44.7566 27.44 46.5006 29.2 46.5006 31.808ZM42.3086 28.736C40.8366 28.736 39.7486 29.728 39.5886 31.168H45.0286C44.8686 29.744 43.7966 28.736 42.3086 28.736ZM57.9064 27.44C60.3864 27.44 62.1944 29.168 62.1944 31.76C62.1944 34.352 60.3864 36.096 57.9064 36.096C56.6584 36.096 55.5704 35.616 54.8824 34.656V36H53.4104V24.128H54.9464V28.8C55.6504 27.888 56.7064 27.44 57.9064 27.44ZM57.7784 34.752C59.4104 34.752 60.6424 33.568 60.6424 31.76C60.6424 29.952 59.4104 28.784 57.7784 28.784C56.1624 28.784 54.9304 29.952 54.9304 31.76C54.9304 33.568 56.1624 34.752 57.7784 34.752ZM72.2206 31.808C72.2206 31.936 72.2046 32.128 72.1886 32.272H65.3086C65.5006 33.76 66.7006 34.752 68.3806 34.752C69.3726 34.752 70.2046 34.416 70.8286 33.728L71.6766 34.72C70.9086 35.616 69.7406 36.096 68.3326 36.096C65.5966 36.096 63.7726 34.288 63.7726 31.76C63.7726 29.248 65.5806 27.44 68.0286 27.44C70.4766 27.44 72.2206 29.2 72.2206 31.808ZM68.0286 28.736C66.5566 28.736 65.4686 29.728 65.3086 31.168H70.7486C70.5886 29.744 69.5166 28.736 68.0286 28.736ZM74.5935 36V24.128H76.1295V36H74.5935ZM80.0702 25.888C79.4782 25.888 79.0302 25.456 79.0302 24.896C79.0302 24.336 79.4782 23.888 80.0702 23.888C80.6622 23.888 81.1102 24.32 81.1102 24.864C81.1102 25.44 80.6782 25.888 80.0702 25.888ZM79.3022 36V27.52H80.8382V36H79.3022ZM91.675 31.808C91.675 31.936 91.659 32.128 91.643 32.272H84.763C84.955 33.76 86.155 34.752 87.835 34.752C88.827 34.752 89.659 34.416 90.283 33.728L91.131 34.72C90.363 35.616 89.195 36.096 87.787 36.096C85.051 36.096 83.227 34.288 83.227 31.76C83.227 29.248 85.035 27.44 87.483 27.44C89.931 27.44 91.675 29.2 91.675 31.808ZM87.483 28.736C86.011 28.736 84.923 29.728 84.763 31.168H90.203C90.043 29.744 88.971 28.736 87.483 28.736ZM99.8916 27.52H101.396L97.6836 36H96.1156L92.4036 27.52H94.0036L96.9156 34.32L99.8916 27.52ZM110.499 31.808C110.499 31.936 110.483 32.128 110.467 32.272H103.587C103.779 33.76 104.979 34.752 106.659 34.752C107.651 34.752 108.483 34.416 109.107 33.728L109.955 34.72C109.187 35.616 108.019 36.096 106.611 36.096C103.875 36.096 102.051 34.288 102.051 31.76C102.051 29.248 103.859 27.44 106.307 27.44C108.755 27.44 110.499 29.2 110.499 31.808ZM106.307 28.736C104.835 28.736 103.747 29.728 103.587 31.168H109.027C108.867 29.744 107.795 28.736 106.307 28.736ZM121.696 34.4L122.176 35.504C121.712 35.904 121.008 36.096 120.32 36.096C118.608 36.096 117.632 35.152 117.632 33.44V28.784H116.192V27.52H117.632V25.664H119.168V27.52H121.6V28.784H119.168V33.376C119.168 34.288 119.648 34.8 120.496 34.8C120.944 34.8 121.376 34.656 121.696 34.4ZM128.801 27.44C130.865 27.44 132.321 28.624 132.321 31.12V36H130.785V31.296C130.785 29.632 129.953 28.816 128.497 28.816C126.865 28.816 125.809 29.792 125.809 31.632V36H124.273V24.128H125.809V28.72C126.449 27.904 127.505 27.44 128.801 27.44ZM143.115 31.808C143.115 31.936 143.099 32.128 143.083 32.272H136.203C136.395 33.76 137.595 34.752 139.275 34.752C140.267 34.752 141.099 34.416 141.723 33.728L142.571 34.72C141.803 35.616 140.635 36.096 139.227 36.096C136.491 36.096 134.667 34.288 134.667 31.76C134.667 29.248 136.475 27.44 138.923 27.44C141.371 27.44 143.115 29.2 143.115 31.808ZM138.923 28.736C137.451 28.736 136.363 29.728 136.203 31.168H141.643C141.483 29.744 140.411 28.736 138.923 28.736ZM147.92 36.096C146.512 36.096 145.12 35.664 144.416 35.104L145.056 33.888C145.776 34.4 146.928 34.768 148.032 34.768C149.456 34.768 150.048 34.336 150.048 33.616C150.048 31.712 144.688 33.36 144.688 29.984C144.688 28.464 146.048 27.44 148.224 27.44C149.328 27.44 150.576 27.728 151.312 28.208L150.656 29.424C149.888 28.928 149.04 28.752 148.208 28.752C146.864 28.752 146.208 29.248 146.208 29.92C146.208 31.92 151.584 30.288 151.584 33.584C151.584 35.12 150.176 36.096 147.92 36.096ZM161.408 31.808C161.408 31.936 161.392 32.128 161.376 32.272H154.496C154.688 33.76 155.888 34.752 157.568 34.752C158.56 34.752 159.392 34.416 160.016 33.728L160.864 34.72C160.096 35.616 158.928 36.096 157.52 36.096C154.784 36.096 152.96 34.288 152.96 31.76C152.96 29.248 154.768 27.44 157.216 27.44C159.664 27.44 161.408 29.2 161.408 31.808ZM157.216 28.736C155.744 28.736 154.656 29.728 154.496 31.168H159.936C159.776 29.744 158.704 28.736 157.216 28.736ZM171.405 27.44C173.725 27.44 175.037 28.56 175.037 30.88V36H173.581V34.88C173.069 35.648 172.125 36.096 170.797 36.096C168.877 36.096 167.661 35.072 167.661 33.6C167.661 32.24 168.541 31.12 171.069 31.12H173.501V30.816C173.501 29.52 172.749 28.768 171.229 28.768C170.221 28.768 169.197 29.12 168.541 29.68L167.901 28.528C168.781 27.824 170.045 27.44 171.405 27.44ZM171.053 34.912C172.205 34.912 173.117 34.384 173.501 33.408V32.224H171.133C169.613 32.224 169.181 32.816 169.181 33.536C169.181 34.384 169.885 34.912 171.053 34.912ZM184.823 27.52H186.279V34.848C186.279 37.84 184.759 39.2 181.879 39.2C180.327 39.2 178.759 38.768 177.831 37.936L178.567 36.752C179.351 37.424 180.583 37.856 181.831 37.856C183.831 37.856 184.743 36.928 184.743 35.008V34.336C184.007 35.216 182.903 35.648 181.687 35.648C179.239 35.648 177.383 33.984 177.383 31.536C177.383 29.088 179.239 27.44 181.687 27.44C182.951 27.44 184.103 27.904 184.823 28.832V27.52ZM181.863 34.304C183.559 34.304 184.775 33.168 184.775 31.536C184.775 29.888 183.559 28.784 181.863 28.784C180.151 28.784 178.935 29.888 178.935 31.536C178.935 33.168 180.151 34.304 181.863 34.304ZM197.117 31.808C197.117 31.936 197.101 32.128 197.085 32.272H190.205C190.397 33.76 191.597 34.752 193.277 34.752C194.269 34.752 195.101 34.416 195.725 33.728L196.573 34.72C195.805 35.616 194.637 36.096 193.229 36.096C190.493 36.096 188.669 34.288 188.669 31.76C188.669 29.248 190.477 27.44 192.925 27.44C195.373 27.44 197.117 29.2 197.117 31.808ZM192.925 28.736C191.453 28.736 190.365 29.728 190.205 31.168H195.645C195.485 29.744 194.413 28.736 192.925 28.736ZM204.018 27.44C206.082 27.44 207.538 28.624 207.538 31.12V36H206.002V31.296C206.002 29.632 205.17 28.816 203.714 28.816C202.082 28.816 201.026 29.792 201.026 31.632V36H199.49V27.52H200.962V28.8C201.586 27.936 202.674 27.44 204.018 27.44ZM214.909 34.4L215.389 35.504C214.925 35.904 214.221 36.096 213.533 36.096C211.821 36.096 210.845 35.152 210.845 33.44V28.784H209.405V27.52H210.845V25.664H212.381V27.52H214.813V28.784H212.381V33.376C212.381 34.288 212.861 34.8 213.709 34.8C214.157 34.8 214.589 34.656 214.909 34.4ZM219.918 36.096C218.51 36.096 217.118 35.664 216.414 35.104L217.054 33.888C217.774 34.4 218.926 34.768 220.03 34.768C221.454 34.768 222.046 34.336 222.046 33.616C222.046 31.712 216.686 33.36 216.686 29.984C216.686 28.464 218.046 27.44 220.222 27.44C221.326 27.44 222.574 27.728 223.31 28.208L222.654 29.424C221.886 28.928 221.038 28.752 220.206 28.752C218.862 28.752 218.206 29.248 218.206 29.92C218.206 31.92 223.582 30.288 223.582 33.584C223.582 35.12 222.174 36.096 219.918 36.096ZM24.544 47.44C26.864 47.44 28.176 48.56 28.176 50.88V56H26.72V54.88C26.208 55.648 25.264 56.096 23.936 56.096C22.016 56.096 20.8 55.072 20.8 53.6C20.8 52.24 21.68 51.12 24.208 51.12H26.64V50.816C26.64 49.52 25.888 48.768 24.368 48.768C23.36 48.768 22.336 49.12 21.68 49.68L21.04 48.528C21.92 47.824 23.184 47.44 24.544 47.44ZM24.192 54.912C25.344 54.912 26.256 54.384 26.64 53.408V52.224H24.272C22.752 52.224 22.32 52.816 22.32 53.536C22.32 54.384 23.024 54.912 24.192 54.912ZM32.7305 48.944C33.2745 47.952 34.3305 47.44 35.8185 47.44V48.928C35.6905 48.912 35.5785 48.912 35.4665 48.912C33.8185 48.912 32.7945 49.92 32.7945 51.776V56H31.2585V47.52H32.7305V48.944ZM45.5375 51.808C45.5375 51.936 45.5215 52.128 45.5055 52.272H38.6255C38.8175 53.76 40.0175 54.752 41.6975 54.752C42.6895 54.752 43.5215 54.416 44.1455 53.728L44.9935 54.72C44.2255 55.616 43.0575 56.096 41.6495 56.096C38.9135 56.096 37.0895 54.288 37.0895 51.76C37.0895 49.248 38.8975 47.44 41.3455 47.44C43.7935 47.44 45.5375 49.2 45.5375 51.808ZM41.3455 48.736C39.8735 48.736 38.7855 49.728 38.6255 51.168H44.0655C43.9055 49.744 42.8335 48.736 41.3455 48.736ZM55.5352 47.44C57.8552 47.44 59.1672 48.56 59.1672 50.88V56H57.7112V54.88C57.1992 55.648 56.2552 56.096 54.9272 56.096C53.0072 56.096 51.7912 55.072 51.7912 53.6C51.7912 52.24 52.6712 51.12 55.1992 51.12H57.6312V50.816C57.6312 49.52 56.8792 48.768 55.3592 48.768C54.3512 48.768 53.3272 49.12 52.6712 49.68L52.0312 48.528C52.9112 47.824 54.1752 47.44 55.5352 47.44ZM55.1832 54.912C56.3352 54.912 57.2472 54.384 57.6312 53.408V52.224H55.2632C53.7432 52.224 53.3112 52.816 53.3112 53.536C53.3112 54.384 54.0152 54.912 55.1832 54.912ZM73.4426 47.52H74.8986V54.848C74.8986 57.84 73.3786 59.2 70.4986 59.2C68.9466 59.2 67.3786 58.768 66.4506 57.936L67.1866 56.752C67.9706 57.424 69.2026 57.856 70.4506 57.856C72.4506 57.856 73.3626 56.928 73.3626 55.008V54.336C72.6266 55.216 71.5226 55.648 70.3066 55.648C67.8586 55.648 66.0026 53.984 66.0026 51.536C66.0026 49.088 67.8586 47.44 70.3066 47.44C71.5706 47.44 72.7226 47.904 73.4426 48.832V47.52ZM70.4826 54.304C72.1786 54.304 73.3946 53.168 73.3946 51.536C73.3946 49.888 72.1786 48.784 70.4826 48.784C68.7706 48.784 67.5546 49.888 67.5546 51.536C67.5546 53.168 68.7706 54.304 70.4826 54.304ZM81.7055 56.096C79.1615 56.096 77.2895 54.288 77.2895 51.76C77.2895 49.232 79.1615 47.44 81.7055 47.44C84.2495 47.44 86.1055 49.232 86.1055 51.76C86.1055 54.288 84.2495 56.096 81.7055 56.096ZM81.7055 54.752C83.3375 54.752 84.5535 53.568 84.5535 51.76C84.5535 49.952 83.3375 48.784 81.7055 48.784C80.0735 48.784 78.8415 49.952 78.8415 51.76C78.8415 53.568 80.0735 54.752 81.7055 54.752ZM92.1017 56.096C89.5577 56.096 87.6857 54.288 87.6857 51.76C87.6857 49.232 89.5577 47.44 92.1017 47.44C94.6457 47.44 96.5017 49.232 96.5017 51.76C96.5017 54.288 94.6457 56.096 92.1017 56.096ZM92.1017 54.752C93.7337 54.752 94.9497 53.568 94.9497 51.76C94.9497 49.952 93.7337 48.784 92.1017 48.784C90.4697 48.784 89.2377 49.952 89.2377 51.76C89.2377 53.568 90.4697 54.752 92.1017 54.752ZM105.33 44.128H106.866V56H105.394V54.656C104.706 55.616 103.618 56.096 102.37 56.096C99.89 56.096 98.082 54.352 98.082 51.76C98.082 49.168 99.89 47.44 102.37 47.44C103.57 47.44 104.626 47.888 105.33 48.8V44.128ZM102.498 54.752C104.114 54.752 105.346 53.568 105.346 51.76C105.346 49.952 104.114 48.784 102.498 48.784C100.866 48.784 99.634 49.952 99.634 51.76C99.634 53.568 100.866 54.752 102.498 54.752ZM122.245 45.888C121.653 45.888 121.205 45.456 121.205 44.896C121.205 44.336 121.653 43.888 122.245 43.888C122.837 43.888 123.285 44.32 123.285 44.864C123.285 45.44 122.853 45.888 122.245 45.888ZM114.773 46.768C114.773 45.12 115.765 44.032 117.573 44.032C118.229 44.032 118.869 44.192 119.301 44.528L118.837 45.696C118.517 45.456 118.101 45.296 117.653 45.296C116.741 45.296 116.277 45.808 116.277 46.784V47.52H118.741V48.784H116.309V56H114.773V48.784H113.333V47.52H114.773V46.768ZM121.477 56V47.52H123.013V56H121.477ZM130.468 54.4L130.948 55.504C130.484 55.904 129.78 56.096 129.092 56.096C127.38 56.096 126.404 55.152 126.404 53.44V48.784H124.964V47.52H126.404V45.664H127.94V47.52H130.372V48.784H127.94V53.376C127.94 54.288 128.42 54.8 129.268 54.8C129.716 54.8 130.148 54.656 130.468 54.4ZM133.569 56.096C132.977 56.096 132.481 55.632 132.481 54.992C132.481 54.352 132.977 53.904 133.569 53.904C134.145 53.904 134.625 54.352 134.625 54.992C134.625 55.632 134.145 56.096 133.569 56.096ZM146.835 56.128C143.443 56.128 140.915 53.712 140.915 50.4C140.915 47.088 143.443 44.672 146.851 44.672C148.579 44.672 150.083 45.264 151.107 46.416L150.067 47.424C149.203 46.512 148.147 46.096 146.915 46.096C144.387 46.096 142.515 47.92 142.515 50.4C142.515 52.88 144.387 54.704 146.915 54.704C148.147 54.704 149.203 54.272 150.067 53.36L151.107 54.368C150.083 55.52 148.579 56.128 146.835 56.128ZM157.933 47.44C159.997 47.44 161.453 48.624 161.453 51.12V56H159.917V51.296C159.917 49.632 159.085 48.816 157.629 48.816C155.997 48.816 154.941 49.792 154.941 51.632V56H153.405V44.128H154.941V48.72C155.581 47.904 156.637 47.44 157.933 47.44ZM172.247 51.808C172.247 51.936 172.231 52.128 172.215 52.272H165.335C165.527 53.76 166.727 54.752 168.407 54.752C169.399 54.752 170.231 54.416 170.855 53.728L171.703 54.72C170.935 55.616 169.767 56.096 168.359 56.096C165.623 56.096 163.799 54.288 163.799 51.76C163.799 49.248 165.607 47.44 168.055 47.44C170.503 47.44 172.247 49.2 172.247 51.808ZM168.055 48.736C166.583 48.736 165.495 49.728 165.335 51.168H170.775C170.615 49.744 169.543 48.736 168.055 48.736ZM178.316 56.096C175.708 56.096 173.836 54.288 173.836 51.76C173.836 49.232 175.708 47.44 178.316 47.44C179.836 47.44 181.1 48.064 181.772 49.248L180.604 50C180.06 49.168 179.228 48.784 178.3 48.784C176.636 48.784 175.388 49.952 175.388 51.76C175.388 53.6 176.636 54.752 178.3 54.752C179.228 54.752 180.06 54.368 180.604 53.536L181.772 54.272C181.1 55.456 179.836 56.096 178.316 56.096ZM190.371 56L187.187 52.048L185.427 53.68V56H183.891V44.128H185.427V51.744L190.051 47.52H191.907L188.339 51.024L192.259 56H190.371ZM202.815 54.4L203.295 55.504C202.831 55.904 202.127 56.096 201.439 56.096C199.727 56.096 198.751 55.152 198.751 53.44V48.784H197.311V47.52H198.751V45.664H200.287V47.52H202.719V48.784H200.287V53.376C200.287 54.288 200.767 54.8 201.615 54.8C202.063 54.8 202.495 54.656 202.815 54.4ZM209.92 47.44C211.984 47.44 213.44 48.624 213.44 51.12V56H211.904V51.296C211.904 49.632 211.072 48.816 209.616 48.816C207.984 48.816 206.928 49.792 206.928 51.632V56H205.392V44.128H206.928V48.72C207.568 47.904 208.624 47.44 209.92 47.44ZM224.234 51.808C224.234 51.936 224.218 52.128 224.202 52.272H217.322C217.514 53.76 218.714 54.752 220.394 54.752C221.386 54.752 222.218 54.416 222.842 53.728L223.69 54.72C222.922 55.616 221.754 56.096 220.346 56.096C217.61 56.096 215.786 54.288 215.786 51.76C215.786 49.248 217.594 47.44 220.042 47.44C222.49 47.44 224.234 49.2 224.234 51.808ZM220.042 48.736C218.57 48.736 217.482 49.728 217.322 51.168H222.762C222.602 49.744 221.53 48.736 220.042 48.736ZM237.215 47.44C239.279 47.44 240.687 48.624 240.687 51.12V56H239.151V51.296C239.151 49.632 238.351 48.816 236.959 48.816C235.423 48.816 234.415 49.792 234.415 51.632V56H232.879V51.296C232.879 49.632 232.079 48.816 230.687 48.816C229.151 48.816 228.143 49.792 228.143 51.632V56H226.607V47.52H228.079V48.784C228.687 47.92 229.727 47.44 231.007 47.44C232.303 47.44 233.391 47.952 233.951 49.008C234.591 48.048 235.775 47.44 237.215 47.44ZM251.922 56.096C249.378 56.096 247.506 54.288 247.506 51.76C247.506 49.232 249.378 47.44 251.922 47.44C254.466 47.44 256.322 49.232 256.322 51.76C256.322 54.288 254.466 56.096 251.922 56.096ZM251.922 54.752C253.554 54.752 254.77 53.568 254.77 51.76C254.77 49.952 253.554 48.784 251.922 48.784C250.29 48.784 249.058 49.952 249.058 51.76C249.058 53.568 250.29 54.752 251.922 54.752ZM265.054 47.52H266.59V56H265.134V54.72C264.51 55.6 263.454 56.096 262.254 56.096C260.062 56.096 258.606 54.896 258.606 52.4V47.52H260.142V52.224C260.142 53.888 260.974 54.72 262.43 54.72C264.03 54.72 265.054 53.728 265.054 51.904V47.52ZM274.042 54.4L274.522 55.504C274.058 55.904 273.354 56.096 272.666 56.096C270.954 56.096 269.978 55.152 269.978 53.44V48.784H268.538V47.52H269.978V45.664H271.514V47.52H273.946V48.784H271.514V53.376C271.514 54.288 271.994 54.8 272.842 54.8C273.29 54.8 273.722 54.656 274.042 54.4ZM276.699 52.464L276.411 44.8H278.219L277.915 52.464H276.699ZM277.323 56.096C276.715 56.096 276.267 55.632 276.267 55.072C276.267 54.496 276.715 54.048 277.323 54.048C277.915 54.048 278.347 54.496 278.347 55.072C278.347 55.632 277.915 56.096 277.323 56.096Z" fill="#E3E3E3"/>
</svg>
