<svg width="142" height="60" viewBox="0 0 142 60" fill="none" xmlns="http://www.w3.org/2000/svg">
<rect x="0.5" y="0.5" width="141" height="59" rx="7.5" fill="#002429"/>
<rect x="0.5" y="0.5" width="141" height="59" rx="7.5" stroke="#05343B"/>
<path opacity="0.5" d="M21.68 36V24.8H23.28V36H21.68ZM30.9371 34.4L31.4171 35.504C30.9531 35.904 30.2491 36.096 29.5611 36.096C27.8491 36.096 26.8731 35.152 26.8731 33.44V28.784H25.4331V27.52H26.8731V25.664H28.4091V27.52H30.8411V28.784H28.4091V33.376C28.4091 34.288 28.8891 34.8 29.7371 34.8C30.1851 34.8 30.6171 34.656 30.9371 34.4ZM33.8981 24.032C34.5061 24.032 34.9381 24.496 34.9381 25.12C34.9381 25.424 34.8901 25.664 34.6821 26.256L33.9141 28.496H32.9061L33.4981 26.112C33.0981 25.968 32.8261 25.6 32.8261 25.12C32.8261 24.48 33.2901 24.032 33.8981 24.032ZM39.5455 36.096C38.1375 36.096 36.7455 35.664 36.0415 35.104L36.6815 33.888C37.4015 34.4 38.5535 34.768 39.6575 34.768C41.0815 34.768 41.6735 34.336 41.6735 33.616C41.6735 31.712 36.3135 33.36 36.3135 29.984C36.3135 28.464 37.6735 27.44 39.8495 27.44C40.9535 27.44 42.2015 27.728 42.9375 28.208L42.2815 29.424C41.5135 28.928 40.6655 28.752 39.8335 28.752C38.4895 28.752 37.8335 29.248 37.8335 29.92C37.8335 31.92 43.2095 30.288 43.2095 33.584C43.2095 35.12 41.8015 36.096 39.5455 36.096ZM52.994 27.44C55.314 27.44 56.626 28.56 56.626 30.88V36H55.17V34.88C54.658 35.648 53.714 36.096 52.386 36.096C50.466 36.096 49.25 35.072 49.25 33.6C49.25 32.24 50.13 31.12 52.658 31.12H55.09V30.816C55.09 29.52 54.338 28.768 52.818 28.768C51.81 28.768 50.786 29.12 50.13 29.68L49.49 28.528C50.37 27.824 51.634 27.44 52.994 27.44ZM52.642 34.912C53.794 34.912 54.706 34.384 55.09 33.408V32.224H52.722C51.202 32.224 50.77 32.816 50.77 33.536C50.77 34.384 51.474 34.912 52.642 34.912ZM74.8534 27.44C76.9174 27.44 78.3254 28.624 78.3254 31.12V36H76.7894V31.296C76.7894 29.632 75.9894 28.816 74.5974 28.816C73.0614 28.816 72.0534 29.792 72.0534 31.632V36H70.5174V31.296C70.5174 29.632 69.7174 28.816 68.3254 28.816C66.7894 28.816 65.7814 29.792 65.7814 31.632V36H64.2454V27.52H65.7174V28.784C66.3254 27.92 67.3654 27.44 68.6454 27.44C69.9414 27.44 71.0294 27.952 71.5894 29.008C72.2294 28.048 73.4134 27.44 74.8534 27.44ZM84.4796 27.44C86.7996 27.44 88.1116 28.56 88.1116 30.88V36H86.6556V34.88C86.1436 35.648 85.1996 36.096 83.8716 36.096C81.9516 36.096 80.7356 35.072 80.7356 33.6C80.7356 32.24 81.6156 31.12 84.1436 31.12H86.5756V30.816C86.5756 29.52 85.8236 28.768 84.3036 28.768C83.2956 28.768 82.2716 29.12 81.6156 29.68L80.9756 28.528C81.8556 27.824 83.1196 27.44 84.4796 27.44ZM84.1276 34.912C85.2796 34.912 86.1916 34.384 86.5756 33.408V32.224H84.2076C82.6876 32.224 82.2556 32.816 82.2556 33.536C82.2556 34.384 82.9596 34.912 84.1276 34.912ZM95.4821 34.4L95.9621 35.504C95.4981 35.904 94.7941 36.096 94.1061 36.096C92.3941 36.096 91.4181 35.152 91.4181 33.44V28.784H89.9781V27.52H91.4181V25.664H92.9541V27.52H95.3861V28.784H92.9541V33.376C92.9541 34.288 93.4341 34.8 94.2821 34.8C94.7301 34.8 95.1621 34.656 95.4821 34.4ZM101.474 36.096C98.8659 36.096 96.9939 34.288 96.9939 31.76C96.9939 29.232 98.8659 27.44 101.474 27.44C102.994 27.44 104.258 28.064 104.93 29.248L103.762 30C103.218 29.168 102.386 28.784 101.458 28.784C99.7939 28.784 98.5459 29.952 98.5459 31.76C98.5459 33.6 99.7939 34.752 101.458 34.752C102.386 34.752 103.218 34.368 103.762 33.536L104.93 34.272C104.258 35.456 102.994 36.096 101.474 36.096ZM111.577 27.44C113.641 27.44 115.097 28.624 115.097 31.12V36H113.561V31.296C113.561 29.632 112.729 28.816 111.273 28.816C109.641 28.816 108.585 29.792 108.585 31.632V36H107.049V24.128H108.585V28.72C109.225 27.904 110.281 27.44 111.577 27.44ZM118.26 32.464L117.972 24.8H119.78L119.476 32.464H118.26ZM118.884 36.096C118.276 36.096 117.828 35.632 117.828 35.072C117.828 34.496 118.276 34.048 118.884 34.048C119.476 34.048 119.908 34.496 119.908 35.072C119.908 35.632 119.476 36.096 118.884 36.096Z" fill="#E3E3E3"/>
</svg>
