<svg width="90" height="90" viewBox="0 0 90 90" fill="none" xmlns="http://www.w3.org/2000/svg">
<rect width="90" height="90" rx="45" fill="#FF7F5D"/>
<path d="M51.75 22.5H38.25C37.0074 22.5 36 23.5074 36 24.75V29.25C36 30.4926 37.0074 31.5 38.25 31.5H51.75C52.9926 31.5 54 30.4926 54 29.25V24.75C54 23.5074 52.9926 22.5 51.75 22.5Z" stroke="#002429" stroke-width="4.5" stroke-linecap="round" stroke-linejoin="round"/>
<path d="M54 27H58.5C59.6935 27 60.8381 27.4741 61.682 28.318C62.5259 29.1619 63 30.3065 63 31.5V63C63 64.1935 62.5259 65.3381 61.682 66.182C60.8381 67.0259 59.6935 67.5 58.5 67.5H31.5C30.3065 67.5 29.1619 67.0259 28.318 66.182C27.4741 65.3381 27 64.1935 27 63V31.5C27 30.3065 27.4741 29.1619 28.318 28.318C29.1619 27.4741 30.3065 27 31.5 27H36" stroke="#002429" stroke-width="4.5" stroke-linecap="round" stroke-linejoin="round"/>
<path d="M45 42.75H54" stroke="#002429" stroke-width="4.5" stroke-linecap="round" stroke-linejoin="round"/>
<path d="M45 54H54" stroke="#002429" stroke-width="4.5" stroke-linecap="round" stroke-linejoin="round"/>
<path d="M36 42.75H36.0225" stroke="#002429" stroke-width="4.5" stroke-linecap="round" stroke-linejoin="round"/>
<path d="M36 54H36.0225" stroke="#002429" stroke-width="4.5" stroke-linecap="round" stroke-linejoin="round"/>
</svg>
