<svg width="90" height="90" viewBox="0 0 90 90" fill="none" xmlns="http://www.w3.org/2000/svg">
<rect width="90" height="90" rx="45" fill="#FF7F5D"/>
<path d="M24.75 33.75V29.25C24.75 28.0565 25.2241 26.9119 26.068 26.068C26.9119 25.2241 28.0565 24.75 29.25 24.75H33.75" stroke="#002429" stroke-width="4.5" stroke-linecap="round" stroke-linejoin="round"/>
<path d="M56.25 24.75H60.75C61.9435 24.75 63.0881 25.2241 63.932 26.068C64.7759 26.9119 65.25 28.0565 65.25 29.25V33.75" stroke="#002429" stroke-width="4.5" stroke-linecap="round" stroke-linejoin="round"/>
<path d="M65.25 56.25V60.75C65.25 61.9435 64.7759 63.0881 63.932 63.932C63.0881 64.7759 61.9435 65.25 60.75 65.25H56.25" stroke="#002429" stroke-width="4.5" stroke-linecap="round" stroke-linejoin="round"/>
<path d="M33.75 65.25H29.25C28.0565 65.25 26.9119 64.7759 26.068 63.932C25.2241 63.0881 24.75 61.9435 24.75 60.75V56.25" stroke="#002429" stroke-width="4.5" stroke-linecap="round" stroke-linejoin="round"/>
<path d="M36 49.5C36 49.5 39.375 54 45 54C50.625 54 54 49.5 54 49.5" stroke="#002429" stroke-width="4.5" stroke-linecap="round" stroke-linejoin="round"/>
<path d="M38.25 38.25H38.2725" stroke="#002429" stroke-width="4.5" stroke-linecap="round" stroke-linejoin="round"/>
<path d="M51.75 38.25H51.7725" stroke="#002429" stroke-width="4.5" stroke-linecap="round" stroke-linejoin="round"/>
</svg>
