<svg width="90" height="90" viewBox="0 0 90 90" fill="none" xmlns="http://www.w3.org/2000/svg">
<rect width="90" height="90" rx="45" fill="#FF7F5D"/>
<path d="M51.75 45C51.75 42.5147 53.7647 40.5 56.25 40.5C61.2205 40.5 65.25 44.5295 65.25 49.5C65.25 54.4705 61.2205 58.5 56.25 58.5C53.7647 58.5 51.75 56.4853 51.75 54V45Z" stroke="#002429" stroke-width="4.5"/>
<path d="M38.25 45C38.25 42.5147 36.2353 40.5 33.75 40.5C28.7794 40.5 24.75 44.5295 24.75 49.5C24.75 54.4705 28.7794 58.5 33.75 58.5C36.2353 58.5 38.25 56.4853 38.25 54V45Z" stroke="#002429" stroke-width="4.5"/>
<path d="M24.75 49.5V42.75C24.75 31.5662 33.8162 22.5 45 22.5C56.1839 22.5 65.25 31.5662 65.25 42.75V53.6539C65.25 58.1726 65.25 60.4319 64.4571 62.1938C63.5546 64.199 61.949 65.8046 59.9438 66.7071C58.1819 67.5 55.9226 67.5 51.4039 67.5H45" stroke="#002429" stroke-width="4.5" stroke-linecap="round" stroke-linejoin="round"/>
</svg>
