<svg width="124" height="36" viewBox="0 0 124 36" fill="none" xmlns="http://www.w3.org/2000/svg">
<path d="M122.843 15.3437C120.868 14.7567 119.579 14.7049 118.084 14.7222C116.332 14.7567 114.854 15.1365 113.652 15.7753C112.14 14.8431 110.422 14.5668 109.184 14.7222C107.862 14.8948 106.435 15.4473 105.113 16.4312C104.271 15.4645 103.961 15.1711 103.102 14.8776C101.316 14.2906 99.3226 15.3437 98.1543 16.6902L91.1617 23.9927C90.8868 24.2689 90.6291 24.5278 90.3542 24.7868L90.3026 24.8213C87.2616 27.7215 84.5126 29.7069 80.5438 30.2074C75.4238 30.8634 73.5684 27.0828 79.6161 21.6103C82.6227 18.9 84.736 18.6583 85.6466 19.1589C87.0554 19.9185 86.6774 22.0592 80.1486 25.0112C79.4615 25.3219 78.5337 25.7362 78.8773 27.3935C78.9975 27.9805 79.5473 28.2394 80.2002 28.1358C80.5438 28.0841 80.7844 27.9977 80.9733 27.946C86.9007 25.8226 89.0999 22.5425 89.7528 21.3686C90.6291 19.8149 90.818 17.7261 89.4092 16.1896C87.8972 14.5668 82.9148 13.4447 76.9014 17.7261C73.0701 20.4537 69.7713 24.1653 69.0153 28.999C64.3937 30.6736 63.1224 29.724 63.1224 29.724C61.7823 28.3775 63.6721 26.116 63.6721 26.116C67.8815 21.6103 81.2654 7.26444 82.9319 5.4863C84.547 3.50102 82.1245 3.38017 82.1245 3.38017C79.5817 3.20753 77.7261 3.55281 75.5098 5.65894L63.2255 18.3302C62.4867 15.2574 58.0712 13.0477 51.4738 16.6729C45.0136 20.2292 42.2132 24.4932 41.0105 27.5316C41.0105 27.5316 35.9592 30.1729 35.2892 27.3762C35.2892 27.3762 34.7909 26.3577 36.9557 24.2689C41.1136 19.8322 51.0441 9.37057 53.8962 6.3322C55.8549 4.08796 53.8102 3.82902 53.8102 3.82902C51.1472 3.6046 49.1886 3.88082 46.8692 6.07326L33.3478 19.953C32.1966 21.0407 31.2688 21.9382 30.4441 22.7152V22.6806C22.3348 29.9486 14.3113 29.3442 12.2496 27.1173C10.1535 24.8385 12.3011 20.7126 17.6444 18.6928C20.3934 17.657 23.0564 17.398 27.3344 17.7087C28.056 17.7606 29.0182 17.8642 29.6882 17.2427C30.049 16.9319 31.4406 15.5163 31.4406 15.5163C32.1795 14.7913 32.0592 13.4102 30.805 13.3584C28.2451 13.2376 24.4136 13.3757 23.8295 10.8552C23.3313 8.71455 26.149 6.29769 31.3719 5.62441C33.3478 5.36545 37.4541 5.55535 40.3747 6.12505C40.3747 6.12505 41.1307 6.31494 41.8179 5.69346C43.6735 4.00166 44.5498 2.68964 44.5498 2.68964C45.1167 2.01636 44.6873 0.963297 43.5704 0.773399C38.8629 -0.0552427 35.9421 -0.020716 32.9698 0.0138107C27.3344 0.100128 21.4242 2.11994 18.4518 4.60587C15.4624 7.10906 14.2426 11.2523 16.6135 13.9799C1.92383 17.657 -0.876668 24.6487 1.03042 30.5182C2.26745 34.3334 6.57986 36.5604 14.0879 35.7663C18.5893 35.2829 22.8846 33.1249 25.7194 31.3123C26.1661 33.2285 28.7089 40.5137 40.1171 31.554C40.0827 34.2643 43.4502 39.3915 55.1847 32.4517C57.8306 40.0303 69.067 33.056 69.4793 32.8143C70.6991 35.9389 75.6129 37.8206 83.035 33.3494C83.035 33.4011 83.1381 34.1607 83.6708 34.8686C84.5813 36.1806 86.7633 36.8538 90.2682 33.4185L99.9412 23.1467C103.085 19.7113 104.168 19.487 105.491 19.1762C107.484 18.6928 108.892 19.1243 109.837 19.7977C108.824 22.2835 111.195 24.5796 111.538 25.7708C112.191 27.9977 110.525 29.3271 109.253 29.5169C107.638 29.7586 105.68 29.1716 103.79 27.3071C102.69 26.237 101.075 26.8066 98.2401 30.2248C98.2401 30.2248 97.1749 31.5023 98.3776 32.6934C99.8552 34.1262 102.054 35.9561 107.655 35.9561C113.256 35.9561 117.311 32.3136 117.706 28.5675C118.187 24.0789 115.198 22.9223 115.129 20.8852C115.078 19.4351 116.538 18.1749 118.015 18.0195C118.617 17.9678 119.27 17.9504 121.056 18.3647C121.056 18.3647 121.52 18.4857 121.915 18.123C122.998 17.1218 123.359 16.5176 123.359 16.5176C123.685 16.1205 123.427 15.5854 122.775 15.3955M59.0677 22.6116C50.7178 31.9166 48.7075 29.2235 48.7075 29.2235C46.5085 27.1518 51.319 22.7842 51.319 22.7842C58.6553 16.6212 60.2187 19.6941 60.2187 19.6941C60.9576 20.9371 59.0848 22.6116 59.0848 22.6116" fill="white" fill-opacity="0.5"/>
</svg>
