<svg width="173" height="32" viewBox="0 0 173 32" fill="none" xmlns="http://www.w3.org/2000/svg">
<path d="M24.6272 10.7822V10.5477C24.6272 7.50009 23.7 4.92136 21.8455 3.16301C19.7593 1.17034 16.63 0.115369 12.9209 0.115369H0.519531V31.8809H7.58979V21.566H11.6464L17.6732 31.8809H25.6704L18.7162 20.1594C21.3819 18.8701 24.6272 16.2915 24.6272 10.7822ZM17.5569 10.8994C17.5569 13.8298 15.5866 15.5879 12.3414 15.5879H7.58932V6.32785H12.3414C15.7026 6.32785 17.5569 7.85167 17.5569 10.8994ZM123.957 -0.00158691L112.135 31.8813H119.205L121.639 25.0827H132.65L135.083 31.8813H142.385L130.563 -0.00158691H123.957ZM130.448 19.1046H123.725L127.086 9.37585L130.448 19.1046ZM162.9 15.7053L172.288 0.232815H164.523L158.96 10.3133L153.512 0.232815H145.399L154.672 15.8227L144.936 31.9983H152.701L158.612 21.3317L164.523 31.9983H172.521L162.9 15.7053ZM39.1138 25.7858V18.9872H51.7474V12.8921H39.1138V6.32791H53.37V0.11542H32.1596V31.8809H45.3724L48.6177 25.7858H39.1138ZM99.3819 0.11542L92.3117 10.4303L85.1258 0.11542H85.0097L77.8238 13.947V31.8809H84.6618V12.1886L92.0795 21.9174V22.0346H92.4273L99.9611 12.1885V31.8807H106.799V0.115242L99.3819 0.11542Z" fill="white" fill-opacity="0.5"/>
<path d="M69.1472 0.112183L52.5732 31.8773H61.15L77.7239 0.112183H69.1472Z" fill="white" fill-opacity="0.5"/>
</svg>
